%TF.GenerationSoftware,KiCad,Pcbnew,(6.0.2)*%
%TF.CreationDate,2022-05-16T05:59:00+03:00*%
%TF.ProjectId,FLIM_laser,464c494d-5f6c-4617-9365-722e6b696361,rev?*%
%TF.SameCoordinates,Original*%
%TF.FileFunction,Copper,L1,Top*%
%TF.FilePolarity,Positive*%
%FSLAX46Y46*%
G04 Gerber Fmt 4.6, Leading zero omitted, Abs format (unit mm)*
G04 Created by KiCad (PCBNEW (6.0.2)) date 2022-05-16 05:59:00*
%MOMM*%
%LPD*%
G01*
G04 APERTURE LIST*
G04 Aperture macros list*
%AMRoundRect*
0 Rectangle with rounded corners*
0 $1 Rounding radius*
0 $2 $3 $4 $5 $6 $7 $8 $9 X,Y pos of 4 corners*
0 Add a 4 corners polygon primitive as box body*
4,1,4,$2,$3,$4,$5,$6,$7,$8,$9,$2,$3,0*
0 Add four circle primitives for the rounded corners*
1,1,$1+$1,$2,$3*
1,1,$1+$1,$4,$5*
1,1,$1+$1,$6,$7*
1,1,$1+$1,$8,$9*
0 Add four rect primitives between the rounded corners*
20,1,$1+$1,$2,$3,$4,$5,0*
20,1,$1+$1,$4,$5,$6,$7,0*
20,1,$1+$1,$6,$7,$8,$9,0*
20,1,$1+$1,$8,$9,$2,$3,0*%
G04 Aperture macros list end*
%TA.AperFunction,ComponentPad*%
%ADD10R,1.700000X1.700000*%
%TD*%
%TA.AperFunction,ComponentPad*%
%ADD11O,1.700000X1.700000*%
%TD*%
%TA.AperFunction,SMDPad,CuDef*%
%ADD12RoundRect,0.237500X0.300000X0.237500X-0.300000X0.237500X-0.300000X-0.237500X0.300000X-0.237500X0*%
%TD*%
%TA.AperFunction,SMDPad,CuDef*%
%ADD13R,2.000000X1.500000*%
%TD*%
%TA.AperFunction,SMDPad,CuDef*%
%ADD14R,2.000000X3.800000*%
%TD*%
%TA.AperFunction,SMDPad,CuDef*%
%ADD15RoundRect,0.100000X0.100000X-0.100000X0.100000X0.100000X-0.100000X0.100000X-0.100000X-0.100000X0*%
%TD*%
%TA.AperFunction,SMDPad,CuDef*%
%ADD16RoundRect,0.200000X0.200000X-0.400000X0.200000X0.400000X-0.200000X0.400000X-0.200000X-0.400000X0*%
%TD*%
%TA.AperFunction,SMDPad,CuDef*%
%ADD17RoundRect,0.237500X0.237500X-0.300000X0.237500X0.300000X-0.237500X0.300000X-0.237500X-0.300000X0*%
%TD*%
%TA.AperFunction,SMDPad,CuDef*%
%ADD18RoundRect,0.237500X-0.237500X0.300000X-0.237500X-0.300000X0.237500X-0.300000X0.237500X0.300000X0*%
%TD*%
%TA.AperFunction,SMDPad,CuDef*%
%ADD19R,0.400000X1.500000*%
%TD*%
%TA.AperFunction,SMDPad,CuDef*%
%ADD20RoundRect,0.100000X-0.130000X-0.100000X0.130000X-0.100000X0.130000X0.100000X-0.130000X0.100000X0*%
%TD*%
%TA.AperFunction,SMDPad,CuDef*%
%ADD21RoundRect,0.237500X0.250000X0.237500X-0.250000X0.237500X-0.250000X-0.237500X0.250000X-0.237500X0*%
%TD*%
%TA.AperFunction,SMDPad,CuDef*%
%ADD22RoundRect,0.057500X-0.192500X-0.057500X0.192500X-0.057500X0.192500X0.057500X-0.192500X0.057500X0*%
%TD*%
%TA.AperFunction,SMDPad,CuDef*%
%ADD23RoundRect,0.053750X-0.196250X-0.053750X0.196250X-0.053750X0.196250X0.053750X-0.196250X0.053750X0*%
%TD*%
%TA.AperFunction,SMDPad,CuDef*%
%ADD24R,1.200000X1.200000*%
%TD*%
%TA.AperFunction,SMDPad,CuDef*%
%ADD25RoundRect,0.237500X-0.250000X-0.237500X0.250000X-0.237500X0.250000X0.237500X-0.250000X0.237500X0*%
%TD*%
%TA.AperFunction,SMDPad,CuDef*%
%ADD26RoundRect,0.045000X-0.045000X0.305000X-0.045000X-0.305000X0.045000X-0.305000X0.045000X0.305000X0*%
%TD*%
%TA.AperFunction,SMDPad,CuDef*%
%ADD27RoundRect,0.045000X-0.045000X0.705000X-0.045000X-0.705000X0.045000X-0.705000X0.045000X0.705000X0*%
%TD*%
%TA.AperFunction,ViaPad*%
%ADD28C,0.800000*%
%TD*%
%TA.AperFunction,Conductor*%
%ADD29C,0.800000*%
%TD*%
%TA.AperFunction,Conductor*%
%ADD30C,0.250000*%
%TD*%
%TA.AperFunction,Conductor*%
%ADD31C,0.200000*%
%TD*%
%TA.AperFunction,Conductor*%
%ADD32C,0.400000*%
%TD*%
%TA.AperFunction,Conductor*%
%ADD33C,1.000000*%
%TD*%
%TA.AperFunction,Conductor*%
%ADD34C,1.500000*%
%TD*%
%TA.AperFunction,Conductor*%
%ADD35C,0.600000*%
%TD*%
%TA.AperFunction,Conductor*%
%ADD36C,0.300000*%
%TD*%
G04 APERTURE END LIST*
D10*
%TO.P,J4,1,Pin_1*%
%TO.N,Net-(J4-Pad1)*%
X162600000Y-59200000D03*
D11*
%TO.P,J4,2,Pin_2*%
%TO.N,Net-(J4-Pad2)*%
X165140000Y-59200000D03*
%TD*%
D12*
%TO.P,C6,1*%
%TO.N,Net-(C6-Pad1)*%
X163200000Y-56600000D03*
%TO.P,C6,2*%
%TO.N,GND*%
X161475000Y-56600000D03*
%TD*%
D13*
%TO.P,U1,1,GND*%
%TO.N,GND*%
X152850000Y-45700000D03*
D14*
%TO.P,U1,2,VO*%
%TO.N,+5V*%
X159150000Y-48000000D03*
D13*
X152850000Y-48000000D03*
%TO.P,U1,3,VI*%
%TO.N,Net-(C1-Pad1)*%
X152850000Y-50300000D03*
%TD*%
D15*
%TO.P,C4,1,1*%
%TO.N,+5V*%
X161400000Y-49200000D03*
D16*
%TO.P,C4,2,2*%
%TO.N,GND*%
X162200000Y-49200000D03*
D15*
%TO.P,C4,3,3*%
%TO.N,Net-(U2-PadA1)*%
X163000000Y-49200000D03*
%TD*%
D17*
%TO.P,C2,1*%
%TO.N,+5V*%
X150650000Y-47725000D03*
%TO.P,C2,2*%
%TO.N,GND*%
X150650000Y-46000000D03*
%TD*%
D10*
%TO.P,J1,1,Pin_1*%
%TO.N,Net-(C3-Pad1)*%
X168200000Y-45400000D03*
D11*
%TO.P,J1,2,Pin_2*%
%TO.N,GND*%
X170740000Y-45400000D03*
%TD*%
D10*
%TO.P,J2,1,Pin_1*%
%TO.N,Net-(D1-Pad2)*%
X152925000Y-42600000D03*
D11*
%TO.P,J2,2,Pin_2*%
%TO.N,GND*%
X155465000Y-42600000D03*
%TD*%
D18*
%TO.P,C7,1*%
%TO.N,+5V*%
X160800000Y-52537500D03*
%TO.P,C7,2*%
%TO.N,GND*%
X160800000Y-54262500D03*
%TD*%
D10*
%TO.P,J3,1,Pin_1*%
%TO.N,Net-(C3-Pad1)*%
X172200000Y-50000000D03*
D11*
%TO.P,J3,2,Pin_2*%
%TO.N,GND*%
X172200000Y-52540000D03*
%TD*%
D19*
%TO.P,U3,1*%
%TO.N,Net-(J4-Pad1)*%
X162350000Y-54730000D03*
%TO.P,U3,2*%
%TO.N,Net-(C6-Pad1)*%
X163000000Y-54730000D03*
%TO.P,U3,3,GND*%
%TO.N,GND*%
X163650000Y-54730000D03*
%TO.P,U3,4*%
%TO.N,Net-(U2-PadC1)*%
X163650000Y-52070000D03*
%TO.P,U3,5,VCC*%
%TO.N,+5V*%
X162350000Y-52070000D03*
%TD*%
D20*
%TO.P,C5,1*%
%TO.N,+5V*%
X162080000Y-50400000D03*
%TO.P,C5,2*%
%TO.N,GND*%
X162720000Y-50400000D03*
%TD*%
D21*
%TO.P,R4,1*%
%TO.N,Net-(J4-Pad2)*%
X166425000Y-56600000D03*
%TO.P,R4,2*%
%TO.N,Net-(C6-Pad1)*%
X164600000Y-56600000D03*
%TD*%
D18*
%TO.P,C1,1*%
%TO.N,Net-(C1-Pad1)*%
X150450000Y-50337500D03*
%TO.P,C1,2*%
%TO.N,GND*%
X150450000Y-52062500D03*
%TD*%
D22*
%TO.P,U2,A1,VDD*%
%TO.N,Net-(U2-PadA1)*%
X163600000Y-49592500D03*
D23*
%TO.P,U2,A2,OUTH*%
%TO.N,Net-(R2-Pad1)*%
X164400000Y-49592500D03*
D22*
%TO.P,U2,B1,GND*%
%TO.N,GND*%
X163600000Y-50000000D03*
%TO.P,U2,B2,OUTL*%
%TO.N,Net-(R3-Pad1)*%
X164400000Y-50000000D03*
%TO.P,U2,C1,IN+*%
%TO.N,Net-(U2-PadC1)*%
X163600000Y-50400000D03*
%TO.P,U2,C2,IN-*%
%TO.N,GND*%
X164400000Y-50400000D03*
%TD*%
D24*
%TO.P,D1,1,K*%
%TO.N,Net-(C1-Pad1)*%
X148600000Y-50200000D03*
%TO.P,D1,2,A*%
%TO.N,Net-(D1-Pad2)*%
X148600000Y-47400000D03*
%TD*%
D20*
%TO.P,R2,1*%
%TO.N,Net-(R2-Pad1)*%
X165225000Y-49400000D03*
%TO.P,R2,2*%
%TO.N,Net-(M1-Pad1)*%
X165865000Y-49400000D03*
%TD*%
D25*
%TO.P,R1,1*%
%TO.N,+5V*%
X166087500Y-48000000D03*
%TO.P,R1,2*%
%TO.N,Net-(C3-Pad1)*%
X167912500Y-48000000D03*
%TD*%
D18*
%TO.P,C3,1*%
%TO.N,Net-(C3-Pad1)*%
X169600000Y-50137500D03*
%TO.P,C3,2*%
%TO.N,GND*%
X169600000Y-51862500D03*
%TD*%
D20*
%TO.P,R3,1*%
%TO.N,Net-(R3-Pad1)*%
X165225000Y-50200000D03*
%TO.P,R3,2*%
%TO.N,Net-(M1-Pad1)*%
X165865000Y-50200000D03*
%TD*%
D26*
%TO.P,M1,1,G*%
%TO.N,Net-(M1-Pad1)*%
X166780000Y-49750000D03*
%TO.P,M1,2,Sub*%
%TO.N,GND*%
X166780000Y-50650000D03*
D27*
%TO.P,M1,3,D*%
%TO.N,Net-(C3-Pad1)*%
X167200000Y-50200000D03*
%TO.P,M1,4,S*%
%TO.N,GND*%
X167600000Y-50200000D03*
%TO.P,M1,5,D*%
%TO.N,Net-(C3-Pad1)*%
X168000000Y-50200000D03*
%TD*%
D28*
%TO.N,GND*%
X161000000Y-45200000D03*
X156600000Y-40200000D03*
X170600000Y-47800000D03*
X158400000Y-42200000D03*
X166000000Y-51200000D03*
X148600000Y-53800000D03*
X167200000Y-54200000D03*
X154800000Y-40000000D03*
X158600000Y-60000000D03*
X167800000Y-42400000D03*
X156400000Y-62200000D03*
X172000000Y-56600000D03*
X164000000Y-62400000D03*
X153800000Y-54000000D03*
X156000000Y-45400000D03*
X151400000Y-56400000D03*
X163400000Y-42200000D03*
X153600000Y-60000000D03*
X167200000Y-51800000D03*
X165200000Y-45000000D03*
X158600000Y-54000000D03*
X155800000Y-50200000D03*
X172200000Y-48200000D03*
X161000000Y-40200000D03*
X165400000Y-40400000D03*
X155800000Y-56800000D03*
X169200000Y-54800000D03*
X152200000Y-40400000D03*
%TD*%
D29*
%TO.N,Net-(C1-Pad1)*%
X150387500Y-50400000D02*
X150450000Y-50337500D01*
X150450000Y-50337500D02*
X152812500Y-50337500D01*
X152812500Y-50337500D02*
X152850000Y-50300000D01*
X149600000Y-50400000D02*
X150387500Y-50400000D01*
X148600000Y-50200000D02*
X149400000Y-50200000D01*
X149400000Y-50200000D02*
X149600000Y-50400000D01*
D30*
X150312500Y-50200000D02*
X150450000Y-50337500D01*
D31*
%TO.N,GND*%
X162800000Y-50000000D02*
X163600000Y-50000000D01*
X162720000Y-50080000D02*
X162800000Y-50000000D01*
X166780000Y-50974798D02*
X167024722Y-51219520D01*
X167024722Y-51219520D02*
X167375278Y-51219520D01*
X167600000Y-50994798D02*
X167600000Y-50200000D01*
X166780000Y-50650000D02*
X166780000Y-50974798D01*
X162720000Y-50400000D02*
X162720000Y-50080000D01*
X167375278Y-51219520D02*
X167600000Y-50994798D01*
D32*
%TO.N,+5V*%
X160350000Y-49200000D02*
X161400480Y-49200000D01*
D33*
X159750000Y-47400000D02*
X159150000Y-48000000D01*
D30*
X162082500Y-52337500D02*
X162350000Y-52070000D01*
D33*
X166087500Y-48000000D02*
X165987980Y-47900480D01*
D30*
X161400000Y-49200480D02*
X161400480Y-49200000D01*
X161800000Y-50400000D02*
X161400000Y-50000000D01*
D29*
X159150000Y-51950000D02*
X159737500Y-52537500D01*
D30*
X161400000Y-50000000D02*
X161400000Y-49200480D01*
X162080000Y-50400000D02*
X161800000Y-50400000D01*
D29*
X159737500Y-52537500D02*
X160800000Y-52537500D01*
D30*
X160800000Y-52337500D02*
X162082500Y-52337500D01*
D29*
X159150000Y-48000000D02*
X159150000Y-51950000D01*
D33*
X164000000Y-47400000D02*
X159750000Y-47400000D01*
D34*
X152850000Y-48000000D02*
X159150000Y-48000000D01*
D29*
X152575000Y-47725000D02*
X152850000Y-48000000D01*
D30*
X165887500Y-48200000D02*
X166087500Y-48000000D01*
D32*
X159150000Y-48000000D02*
X160350000Y-49200000D01*
D33*
X164500480Y-47900480D02*
X164000000Y-47400000D01*
X165987980Y-47900480D02*
X164500480Y-47900480D01*
D29*
X150650000Y-47725000D02*
X152575000Y-47725000D01*
D35*
%TO.N,Net-(C6-Pad1)*%
X164600000Y-56600000D02*
X163200000Y-56600000D01*
D32*
X163200000Y-56600000D02*
X163000000Y-56400000D01*
X163000000Y-56400000D02*
X163000000Y-54730000D01*
D33*
%TO.N,Net-(D1-Pad2)*%
X148600000Y-45600000D02*
X151600000Y-42600000D01*
X148600000Y-47400000D02*
X148600000Y-45600000D01*
X151600000Y-42600000D02*
X152460000Y-42600000D01*
D31*
%TO.N,Net-(R2-Pad1)*%
X164800000Y-49600000D02*
X165000000Y-49400000D01*
X165000000Y-49400000D02*
X165225000Y-49400000D01*
X164792500Y-49592500D02*
X164800000Y-49600000D01*
X164400000Y-49592500D02*
X164792500Y-49592500D01*
%TO.N,Net-(U2-PadA1)*%
X162900000Y-49300000D02*
X163185480Y-49585480D01*
X162900000Y-49200000D02*
X162900000Y-49300000D01*
X163185480Y-49585480D02*
X163555382Y-49585480D01*
D32*
%TO.N,Net-(U2-PadC1)*%
X163650000Y-50564520D02*
X163600000Y-50514520D01*
X163650000Y-52070000D02*
X163650000Y-50564520D01*
D36*
%TO.N,Net-(M1-Pad1)*%
X165865000Y-49400000D02*
X166000000Y-49400000D01*
X166000000Y-49400000D02*
X166200000Y-49600000D01*
X166720000Y-49690000D02*
X166720000Y-49810000D01*
D31*
X166770000Y-49400000D02*
X166770000Y-49750000D01*
D32*
X165865000Y-49400000D02*
X165865000Y-49935000D01*
D36*
X166200000Y-49800000D02*
X166100000Y-49700000D01*
X166720000Y-49810000D02*
X166595000Y-49935000D01*
X165865000Y-49935000D02*
X166100000Y-49700000D01*
D31*
X165865000Y-49400000D02*
X166770000Y-49400000D01*
D36*
X166595000Y-49935000D02*
X165865000Y-49935000D01*
X166200000Y-49600000D02*
X166630000Y-49600000D01*
D32*
X165865000Y-49935000D02*
X165865000Y-50200000D01*
D36*
X166630000Y-49600000D02*
X166720000Y-49690000D01*
X166600000Y-49800000D02*
X166200000Y-49800000D01*
D31*
%TO.N,Net-(C3-Pad1)*%
X167800000Y-48600000D02*
X167800000Y-48800000D01*
D35*
X167800000Y-48600000D02*
X169200000Y-48600000D01*
D31*
X168000000Y-49000000D02*
X168000000Y-48800000D01*
X167800000Y-48112500D02*
X167912500Y-48000000D01*
D29*
X169600000Y-50137500D02*
X172062500Y-50137500D01*
D35*
X168200000Y-45400000D02*
X168200000Y-46200000D01*
D31*
X167912500Y-48000000D02*
X167912500Y-48087500D01*
X167600000Y-48600000D02*
X167800000Y-48600000D01*
D35*
X168200000Y-46200000D02*
X168000000Y-46400000D01*
D29*
X172062500Y-50137500D02*
X172200000Y-50000000D01*
D31*
X167912500Y-48087500D02*
X167600000Y-48400000D01*
D29*
X167912500Y-48000000D02*
X167912500Y-48450000D01*
D31*
X167400000Y-49000000D02*
X168000000Y-49000000D01*
X167400000Y-48800000D02*
X167400000Y-48400000D01*
D35*
X168000000Y-49000000D02*
X169600000Y-49000000D01*
D31*
X167188560Y-49150480D02*
X167950480Y-49150480D01*
X168000000Y-48800000D02*
X167800000Y-48800000D01*
D35*
X169600000Y-49000000D02*
X169600000Y-50137500D01*
D31*
X167950480Y-49150480D02*
X168000000Y-49200000D01*
X168000000Y-50200000D02*
X168000000Y-49200000D01*
X167169520Y-49030480D02*
X167400000Y-48800000D01*
X167600000Y-48600000D02*
X167400000Y-48800000D01*
X167169520Y-49169520D02*
X167188560Y-49150480D01*
X167200000Y-49200000D02*
X167200000Y-50200000D01*
X168000000Y-49200000D02*
X168000000Y-49000000D01*
D29*
X168000000Y-46400000D02*
X167912500Y-46487500D01*
D31*
X167400000Y-48800000D02*
X167300000Y-48900000D01*
X167800000Y-48800000D02*
X167400000Y-48800000D01*
X167300000Y-48900000D02*
X167400000Y-49000000D01*
X167300000Y-48900000D02*
X167169520Y-49030480D01*
D35*
X168600000Y-48000000D02*
X169300000Y-48700000D01*
D31*
X167912500Y-48487500D02*
X167800000Y-48600000D01*
D35*
X167912500Y-48000000D02*
X168600000Y-48000000D01*
X169300000Y-48700000D02*
X169600000Y-49000000D01*
D31*
X167169520Y-49030480D02*
X167169520Y-49169520D01*
X168000000Y-48087500D02*
X167912500Y-48000000D01*
X167169520Y-49169520D02*
X167200000Y-49200000D01*
X167600000Y-48400000D02*
X167600000Y-48600000D01*
X167800000Y-48800000D02*
X167800000Y-48112500D01*
X167800000Y-48000000D02*
X167912500Y-48000000D01*
X167912500Y-48487500D02*
X167912500Y-48000000D01*
D29*
X167912500Y-46487500D02*
X167912500Y-48000000D01*
D31*
X167400000Y-48400000D02*
X167800000Y-48000000D01*
X168000000Y-48800000D02*
X168000000Y-48087500D01*
D35*
X169200000Y-48600000D02*
X169300000Y-48700000D01*
D31*
%TO.N,Net-(R3-Pad1)*%
X164400000Y-50000000D02*
X164800000Y-50000000D01*
X164800000Y-50000000D02*
X165000000Y-50200000D01*
X165000000Y-50200000D02*
X165225000Y-50200000D01*
%TO.N,Net-(J4-Pad1)*%
X162350000Y-58950000D02*
X162350000Y-54730000D01*
D30*
X162337020Y-54742980D02*
X162350000Y-54730000D01*
D31*
X162600000Y-59200000D02*
X162350000Y-58950000D01*
D29*
%TO.N,Net-(J4-Pad2)*%
X166425000Y-56600000D02*
X166425000Y-57915000D01*
X166425000Y-57915000D02*
X165140000Y-59200000D01*
%TD*%
%TA.AperFunction,Conductor*%
%TO.N,GND*%
G36*
X173759191Y-39018907D02*
G01*
X173795155Y-39068407D01*
X173800000Y-39099000D01*
X173800000Y-63301000D01*
X173781093Y-63359191D01*
X173731593Y-63395155D01*
X173701000Y-63400000D01*
X146099000Y-63400000D01*
X146040809Y-63381093D01*
X146004845Y-63331593D01*
X146000000Y-63301000D01*
X146000000Y-60800000D01*
X147244341Y-60800000D01*
X147264937Y-61035408D01*
X147326097Y-61263663D01*
X147425965Y-61477829D01*
X147561505Y-61671401D01*
X147728599Y-61838495D01*
X147922171Y-61974035D01*
X148136337Y-62073903D01*
X148364592Y-62135063D01*
X148449431Y-62142486D01*
X148538870Y-62150311D01*
X148538878Y-62150311D01*
X148541034Y-62150500D01*
X148658966Y-62150500D01*
X148661122Y-62150311D01*
X148661130Y-62150311D01*
X148750569Y-62142486D01*
X148835408Y-62135063D01*
X149063663Y-62073903D01*
X149277829Y-61974035D01*
X149471401Y-61838495D01*
X149638495Y-61671401D01*
X149771554Y-61481374D01*
X149771554Y-61481373D01*
X149774035Y-61477830D01*
X149873903Y-61263663D01*
X149935063Y-61035408D01*
X149955659Y-60800000D01*
X169844341Y-60800000D01*
X169864937Y-61035408D01*
X169926097Y-61263663D01*
X170025965Y-61477829D01*
X170161505Y-61671401D01*
X170328599Y-61838495D01*
X170522171Y-61974035D01*
X170736337Y-62073903D01*
X170964592Y-62135063D01*
X171049431Y-62142486D01*
X171138870Y-62150311D01*
X171138878Y-62150311D01*
X171141034Y-62150500D01*
X171258966Y-62150500D01*
X171261122Y-62150311D01*
X171261130Y-62150311D01*
X171350569Y-62142486D01*
X171435408Y-62135063D01*
X171663663Y-62073903D01*
X171877829Y-61974035D01*
X172071401Y-61838495D01*
X172238495Y-61671401D01*
X172371554Y-61481374D01*
X172371554Y-61481373D01*
X172374035Y-61477830D01*
X172473903Y-61263663D01*
X172535063Y-61035408D01*
X172555659Y-60800000D01*
X172535063Y-60564592D01*
X172473903Y-60336337D01*
X172374035Y-60122171D01*
X172238495Y-59928599D01*
X172071401Y-59761505D01*
X171877829Y-59625965D01*
X171663663Y-59526097D01*
X171435408Y-59464937D01*
X171350569Y-59457514D01*
X171261130Y-59449689D01*
X171261122Y-59449689D01*
X171258966Y-59449500D01*
X171141034Y-59449500D01*
X171138878Y-59449689D01*
X171138870Y-59449689D01*
X171049431Y-59457514D01*
X170964592Y-59464937D01*
X170736337Y-59526097D01*
X170522171Y-59625965D01*
X170328599Y-59761505D01*
X170161505Y-59928599D01*
X170136420Y-59964424D01*
X170028447Y-60118625D01*
X170028446Y-60118627D01*
X170025965Y-60122170D01*
X169926097Y-60336337D01*
X169864937Y-60564592D01*
X169844341Y-60800000D01*
X149955659Y-60800000D01*
X149935063Y-60564592D01*
X149873903Y-60336337D01*
X149774035Y-60122171D01*
X149737328Y-60069748D01*
X161549500Y-60069748D01*
X161561133Y-60128231D01*
X161605448Y-60194552D01*
X161671769Y-60238867D01*
X161681332Y-60240769D01*
X161681334Y-60240770D01*
X161704005Y-60245279D01*
X161730252Y-60250500D01*
X163469748Y-60250500D01*
X163495995Y-60245279D01*
X163518666Y-60240770D01*
X163518668Y-60240769D01*
X163528231Y-60238867D01*
X163594552Y-60194552D01*
X163638867Y-60128231D01*
X163650500Y-60069748D01*
X163650500Y-59185262D01*
X164084520Y-59185262D01*
X164101759Y-59390553D01*
X164103092Y-59395201D01*
X164103092Y-59395202D01*
X164141150Y-59527925D01*
X164158544Y-59588586D01*
X164252712Y-59771818D01*
X164380677Y-59933270D01*
X164384357Y-59936402D01*
X164384359Y-59936404D01*
X164497017Y-60032283D01*
X164537564Y-60066791D01*
X164541787Y-60069151D01*
X164541791Y-60069154D01*
X164647498Y-60128231D01*
X164717398Y-60167297D01*
X164721996Y-60168791D01*
X164908724Y-60229463D01*
X164908726Y-60229464D01*
X164913329Y-60230959D01*
X165117894Y-60255351D01*
X165122716Y-60254980D01*
X165122719Y-60254980D01*
X165193259Y-60249552D01*
X165323300Y-60239546D01*
X165521725Y-60184145D01*
X165526038Y-60181966D01*
X165526044Y-60181964D01*
X165701289Y-60093441D01*
X165701291Y-60093440D01*
X165705610Y-60091258D01*
X165740943Y-60063653D01*
X165864135Y-59967406D01*
X165864139Y-59967402D01*
X165867951Y-59964424D01*
X166002564Y-59808472D01*
X166021231Y-59775613D01*
X166101934Y-59633550D01*
X166101935Y-59633547D01*
X166104323Y-59629344D01*
X166117882Y-59588586D01*
X166167824Y-59438454D01*
X166167824Y-59438452D01*
X166169351Y-59433863D01*
X166195171Y-59229474D01*
X166195583Y-59200000D01*
X166194138Y-59185262D01*
X166181724Y-59058652D01*
X166194863Y-58998893D01*
X166210248Y-58978987D01*
X166817199Y-58372036D01*
X166826936Y-58363498D01*
X166848129Y-58347236D01*
X166853282Y-58343282D01*
X166949536Y-58217841D01*
X167010044Y-58071762D01*
X167025500Y-57954361D01*
X167030682Y-57915000D01*
X167026347Y-57882072D01*
X167025500Y-57869151D01*
X167025500Y-57132822D01*
X167044867Y-57074004D01*
X167062063Y-57050722D01*
X167066461Y-57044768D01*
X167068996Y-57037551D01*
X167108102Y-56926191D01*
X167110101Y-56920500D01*
X167110678Y-56914397D01*
X167112782Y-56892144D01*
X167112782Y-56892134D01*
X167113000Y-56889833D01*
X167112999Y-56310168D01*
X167110101Y-56279500D01*
X167108103Y-56273809D01*
X167068913Y-56162214D01*
X167066461Y-56155232D01*
X166988211Y-56049289D01*
X166882268Y-55971039D01*
X166758000Y-55927399D01*
X166751996Y-55926831D01*
X166751994Y-55926831D01*
X166729644Y-55924718D01*
X166729634Y-55924718D01*
X166727333Y-55924500D01*
X166425130Y-55924500D01*
X166122668Y-55924501D01*
X166092000Y-55927399D01*
X166086316Y-55929395D01*
X166086312Y-55929396D01*
X165974714Y-55968587D01*
X165967732Y-55971039D01*
X165861789Y-56049289D01*
X165783539Y-56155232D01*
X165781087Y-56162214D01*
X165774868Y-56179923D01*
X165739899Y-56279500D01*
X165739332Y-56285503D01*
X165739331Y-56285506D01*
X165737219Y-56307852D01*
X165737000Y-56310167D01*
X165737001Y-56889832D01*
X165739899Y-56920500D01*
X165741895Y-56926184D01*
X165741896Y-56926188D01*
X165781087Y-57037786D01*
X165783539Y-57044768D01*
X165787937Y-57050722D01*
X165805133Y-57074004D01*
X165824500Y-57132822D01*
X165824500Y-57625257D01*
X165805593Y-57683448D01*
X165795504Y-57695261D01*
X165360790Y-58129975D01*
X165306273Y-58157752D01*
X165280438Y-58158429D01*
X165152185Y-58144949D01*
X165152183Y-58144949D01*
X165147369Y-58144443D01*
X165091800Y-58149500D01*
X164947022Y-58162675D01*
X164947017Y-58162676D01*
X164942203Y-58163114D01*
X164744572Y-58221280D01*
X164562002Y-58316726D01*
X164558231Y-58319758D01*
X164405220Y-58442781D01*
X164405217Y-58442783D01*
X164401447Y-58445815D01*
X164269024Y-58603630D01*
X164169776Y-58784162D01*
X164107484Y-58980532D01*
X164106944Y-58985344D01*
X164106944Y-58985345D01*
X164103946Y-59012078D01*
X164084520Y-59185262D01*
X163650500Y-59185262D01*
X163650500Y-58330252D01*
X163638867Y-58271769D01*
X163594552Y-58205448D01*
X163528231Y-58161133D01*
X163518668Y-58159231D01*
X163518666Y-58159230D01*
X163495995Y-58154721D01*
X163469748Y-58149500D01*
X162749500Y-58149500D01*
X162691309Y-58130593D01*
X162655345Y-58081093D01*
X162650500Y-58050500D01*
X162650500Y-57353824D01*
X162669407Y-57295633D01*
X162718907Y-57259669D01*
X162782303Y-57260417D01*
X162811301Y-57270601D01*
X162811311Y-57270603D01*
X162817000Y-57272601D01*
X162823004Y-57273169D01*
X162823006Y-57273169D01*
X162845356Y-57275282D01*
X162845366Y-57275282D01*
X162847667Y-57275500D01*
X163199848Y-57275500D01*
X163552332Y-57275499D01*
X163583000Y-57272601D01*
X163588684Y-57270605D01*
X163588688Y-57270604D01*
X163700286Y-57231413D01*
X163707268Y-57228961D01*
X163813211Y-57150711D01*
X163817605Y-57144762D01*
X163817609Y-57144758D01*
X163820617Y-57140685D01*
X163870396Y-57105109D01*
X163900252Y-57100500D01*
X163949748Y-57100500D01*
X164007939Y-57119407D01*
X164029383Y-57140685D01*
X164032391Y-57144758D01*
X164032395Y-57144762D01*
X164036789Y-57150711D01*
X164142732Y-57228961D01*
X164267000Y-57272601D01*
X164273004Y-57273169D01*
X164273006Y-57273169D01*
X164295356Y-57275282D01*
X164295366Y-57275282D01*
X164297667Y-57275500D01*
X164599870Y-57275500D01*
X164902332Y-57275499D01*
X164933000Y-57272601D01*
X164938684Y-57270605D01*
X164938688Y-57270604D01*
X165050286Y-57231413D01*
X165057268Y-57228961D01*
X165163211Y-57150711D01*
X165241461Y-57044768D01*
X165243996Y-57037551D01*
X165283102Y-56926191D01*
X165285101Y-56920500D01*
X165285678Y-56914397D01*
X165287782Y-56892144D01*
X165287782Y-56892134D01*
X165288000Y-56889833D01*
X165287999Y-56310168D01*
X165285101Y-56279500D01*
X165283103Y-56273809D01*
X165243913Y-56162214D01*
X165241461Y-56155232D01*
X165163211Y-56049289D01*
X165057268Y-55971039D01*
X164933000Y-55927399D01*
X164926996Y-55926831D01*
X164926994Y-55926831D01*
X164904644Y-55924718D01*
X164904634Y-55924718D01*
X164902333Y-55924500D01*
X164600130Y-55924500D01*
X164297668Y-55924501D01*
X164267000Y-55927399D01*
X164261316Y-55929395D01*
X164261312Y-55929396D01*
X164149714Y-55968587D01*
X164142732Y-55971039D01*
X164036789Y-56049289D01*
X164032395Y-56055238D01*
X164032391Y-56055242D01*
X164029383Y-56059315D01*
X163979604Y-56094891D01*
X163949748Y-56099500D01*
X163900252Y-56099500D01*
X163842061Y-56080593D01*
X163820617Y-56059315D01*
X163817609Y-56055242D01*
X163817605Y-56055238D01*
X163813211Y-56049289D01*
X163707268Y-55971039D01*
X163583000Y-55927399D01*
X163576996Y-55926831D01*
X163576994Y-55926831D01*
X163554644Y-55924718D01*
X163554634Y-55924718D01*
X163552333Y-55924500D01*
X163499500Y-55924500D01*
X163441309Y-55905593D01*
X163405345Y-55856093D01*
X163400500Y-55825500D01*
X163400500Y-55779000D01*
X163419407Y-55720809D01*
X163468907Y-55684845D01*
X163499500Y-55680000D01*
X163534320Y-55680000D01*
X163547005Y-55675878D01*
X163550000Y-55671757D01*
X163550000Y-55664320D01*
X163750000Y-55664320D01*
X163754122Y-55677005D01*
X163758243Y-55680000D01*
X163864840Y-55680000D01*
X163874462Y-55679052D01*
X163918474Y-55670298D01*
X163936142Y-55662979D01*
X163986082Y-55629611D01*
X163999611Y-55616082D01*
X164032979Y-55566142D01*
X164040298Y-55548474D01*
X164049052Y-55504462D01*
X164050000Y-55494840D01*
X164050000Y-54845680D01*
X164045878Y-54832995D01*
X164041757Y-54830000D01*
X163765680Y-54830000D01*
X163752995Y-54834122D01*
X163750000Y-54838243D01*
X163750000Y-55664320D01*
X163550000Y-55664320D01*
X163550000Y-54614320D01*
X163750000Y-54614320D01*
X163754122Y-54627005D01*
X163758243Y-54630000D01*
X164034320Y-54630000D01*
X164047005Y-54625878D01*
X164050000Y-54621757D01*
X164050000Y-53965160D01*
X164049052Y-53955538D01*
X164040298Y-53911526D01*
X164032979Y-53893858D01*
X163999611Y-53843918D01*
X163986082Y-53830389D01*
X163936142Y-53797021D01*
X163918474Y-53789702D01*
X163874462Y-53780948D01*
X163864840Y-53780000D01*
X163765680Y-53780000D01*
X163752995Y-53784122D01*
X163750000Y-53788243D01*
X163750000Y-54614320D01*
X163550000Y-54614320D01*
X163550000Y-53795680D01*
X163545878Y-53782995D01*
X163541757Y-53780000D01*
X163435160Y-53780000D01*
X163425538Y-53780948D01*
X163381527Y-53789702D01*
X163363554Y-53797147D01*
X163302558Y-53801949D01*
X163287778Y-53797147D01*
X163286340Y-53796551D01*
X163278231Y-53791133D01*
X163219748Y-53779500D01*
X162780252Y-53779500D01*
X162757016Y-53784122D01*
X162731329Y-53789231D01*
X162731327Y-53789232D01*
X162721769Y-53791133D01*
X162713666Y-53796548D01*
X162712885Y-53796871D01*
X162651888Y-53801671D01*
X162637115Y-53796871D01*
X162636334Y-53796548D01*
X162628231Y-53791133D01*
X162618673Y-53789232D01*
X162618671Y-53789231D01*
X162592984Y-53784122D01*
X162569748Y-53779500D01*
X162130252Y-53779500D01*
X162107016Y-53784122D01*
X162081334Y-53789230D01*
X162081332Y-53789231D01*
X162071769Y-53791133D01*
X162005448Y-53835448D01*
X161961133Y-53901769D01*
X161959231Y-53911332D01*
X161959230Y-53911334D01*
X161954721Y-53934005D01*
X161949500Y-53960252D01*
X161949500Y-55499748D01*
X161961133Y-55558231D01*
X162005448Y-55624552D01*
X162013558Y-55629971D01*
X162020450Y-55636863D01*
X162017494Y-55639819D01*
X162043345Y-55672540D01*
X162049500Y-55706903D01*
X162049500Y-55855485D01*
X162030593Y-55913676D01*
X161981093Y-55949640D01*
X161917697Y-55948893D01*
X161863597Y-55929894D01*
X161851897Y-55927327D01*
X161829591Y-55925218D01*
X161824955Y-55925000D01*
X161590680Y-55925000D01*
X161577995Y-55929122D01*
X161575000Y-55933243D01*
X161575000Y-57259320D01*
X161579122Y-57272005D01*
X161583243Y-57275000D01*
X161824955Y-57275000D01*
X161829591Y-57274782D01*
X161851897Y-57272673D01*
X161863597Y-57270106D01*
X161917697Y-57251107D01*
X161978866Y-57249666D01*
X162029199Y-57284453D01*
X162049500Y-57344515D01*
X162049500Y-58050500D01*
X162030593Y-58108691D01*
X161981093Y-58144655D01*
X161950500Y-58149500D01*
X161730252Y-58149500D01*
X161704005Y-58154721D01*
X161681334Y-58159230D01*
X161681332Y-58159231D01*
X161671769Y-58161133D01*
X161605448Y-58205448D01*
X161561133Y-58271769D01*
X161549500Y-58330252D01*
X161549500Y-60069748D01*
X149737328Y-60069748D01*
X149638495Y-59928599D01*
X149471401Y-59761505D01*
X149277829Y-59625965D01*
X149063663Y-59526097D01*
X148835408Y-59464937D01*
X148750569Y-59457514D01*
X148661130Y-59449689D01*
X148661122Y-59449689D01*
X148658966Y-59449500D01*
X148541034Y-59449500D01*
X148538878Y-59449689D01*
X148538870Y-59449689D01*
X148449431Y-59457514D01*
X148364592Y-59464937D01*
X148136337Y-59526097D01*
X147922171Y-59625965D01*
X147728599Y-59761505D01*
X147561505Y-59928599D01*
X147536420Y-59964424D01*
X147428447Y-60118625D01*
X147428446Y-60118627D01*
X147425965Y-60122170D01*
X147326097Y-60336337D01*
X147264937Y-60564592D01*
X147244341Y-60800000D01*
X146000000Y-60800000D01*
X146000000Y-56887455D01*
X160737500Y-56887455D01*
X160737718Y-56892091D01*
X160739827Y-56914397D01*
X160742395Y-56926099D01*
X160781534Y-57037551D01*
X160788381Y-57050484D01*
X160857746Y-57144397D01*
X160868103Y-57154754D01*
X160962016Y-57224119D01*
X160974949Y-57230966D01*
X161086401Y-57270105D01*
X161098103Y-57272673D01*
X161120409Y-57274782D01*
X161125045Y-57275000D01*
X161359320Y-57275000D01*
X161372005Y-57270878D01*
X161375000Y-57266757D01*
X161375000Y-56715680D01*
X161370878Y-56702995D01*
X161366757Y-56700000D01*
X160753180Y-56700000D01*
X160740495Y-56704122D01*
X160737500Y-56708243D01*
X160737500Y-56887455D01*
X146000000Y-56887455D01*
X146000000Y-56484320D01*
X160737500Y-56484320D01*
X160741622Y-56497005D01*
X160745743Y-56500000D01*
X161359320Y-56500000D01*
X161372005Y-56495878D01*
X161375000Y-56491757D01*
X161375000Y-55940680D01*
X161370878Y-55927995D01*
X161366757Y-55925000D01*
X161125045Y-55925000D01*
X161120409Y-55925218D01*
X161098103Y-55927327D01*
X161086401Y-55929895D01*
X160974949Y-55969034D01*
X160962016Y-55975881D01*
X160868103Y-56045246D01*
X160857746Y-56055603D01*
X160788381Y-56149516D01*
X160781534Y-56162449D01*
X160742395Y-56273901D01*
X160739827Y-56285603D01*
X160737718Y-56307909D01*
X160737500Y-56312545D01*
X160737500Y-56484320D01*
X146000000Y-56484320D01*
X146000000Y-54612455D01*
X160125000Y-54612455D01*
X160125218Y-54617091D01*
X160127327Y-54639397D01*
X160129895Y-54651099D01*
X160169034Y-54762551D01*
X160175881Y-54775484D01*
X160245246Y-54869397D01*
X160255603Y-54879754D01*
X160349516Y-54949119D01*
X160362449Y-54955966D01*
X160473901Y-54995105D01*
X160485603Y-54997673D01*
X160507909Y-54999782D01*
X160512545Y-55000000D01*
X160684320Y-55000000D01*
X160697005Y-54995878D01*
X160700000Y-54991757D01*
X160700000Y-54984320D01*
X160900000Y-54984320D01*
X160904122Y-54997005D01*
X160908243Y-55000000D01*
X161087455Y-55000000D01*
X161092091Y-54999782D01*
X161114397Y-54997673D01*
X161126099Y-54995105D01*
X161237551Y-54955966D01*
X161250484Y-54949119D01*
X161344397Y-54879754D01*
X161354754Y-54869397D01*
X161424119Y-54775484D01*
X161430966Y-54762551D01*
X161470105Y-54651099D01*
X161472673Y-54639397D01*
X161474782Y-54617091D01*
X161475000Y-54612455D01*
X161475000Y-54378180D01*
X161470878Y-54365495D01*
X161466757Y-54362500D01*
X160915680Y-54362500D01*
X160902995Y-54366622D01*
X160900000Y-54370743D01*
X160900000Y-54984320D01*
X160700000Y-54984320D01*
X160700000Y-54378180D01*
X160695878Y-54365495D01*
X160691757Y-54362500D01*
X160140680Y-54362500D01*
X160127995Y-54366622D01*
X160125000Y-54370743D01*
X160125000Y-54612455D01*
X146000000Y-54612455D01*
X146000000Y-54146820D01*
X160125000Y-54146820D01*
X160129122Y-54159505D01*
X160133243Y-54162500D01*
X160684320Y-54162500D01*
X160697005Y-54158378D01*
X160700000Y-54154257D01*
X160700000Y-54146820D01*
X160900000Y-54146820D01*
X160904122Y-54159505D01*
X160908243Y-54162500D01*
X161459320Y-54162500D01*
X161472005Y-54158378D01*
X161475000Y-54154257D01*
X161475000Y-53912545D01*
X161474782Y-53907909D01*
X161472673Y-53885603D01*
X161470105Y-53873901D01*
X161430966Y-53762449D01*
X161424119Y-53749516D01*
X161354754Y-53655603D01*
X161344397Y-53645246D01*
X161250484Y-53575881D01*
X161237551Y-53569034D01*
X161126099Y-53529895D01*
X161114397Y-53527327D01*
X161092091Y-53525218D01*
X161087455Y-53525000D01*
X160915680Y-53525000D01*
X160902995Y-53529122D01*
X160900000Y-53533243D01*
X160900000Y-54146820D01*
X160700000Y-54146820D01*
X160700000Y-53540680D01*
X160695878Y-53527995D01*
X160691757Y-53525000D01*
X160512545Y-53525000D01*
X160507909Y-53525218D01*
X160485603Y-53527327D01*
X160473901Y-53529895D01*
X160362449Y-53569034D01*
X160349516Y-53575881D01*
X160255603Y-53645246D01*
X160245246Y-53655603D01*
X160175881Y-53749516D01*
X160169034Y-53762449D01*
X160129895Y-53873901D01*
X160127327Y-53885603D01*
X160125218Y-53907909D01*
X160125000Y-53912545D01*
X160125000Y-54146820D01*
X146000000Y-54146820D01*
X146000000Y-52412455D01*
X149775000Y-52412455D01*
X149775218Y-52417091D01*
X149777327Y-52439397D01*
X149779895Y-52451099D01*
X149819034Y-52562551D01*
X149825881Y-52575484D01*
X149895246Y-52669397D01*
X149905603Y-52679754D01*
X149999516Y-52749119D01*
X150012449Y-52755966D01*
X150123901Y-52795105D01*
X150135603Y-52797673D01*
X150157909Y-52799782D01*
X150162545Y-52800000D01*
X150334320Y-52800000D01*
X150347005Y-52795878D01*
X150350000Y-52791757D01*
X150350000Y-52784320D01*
X150550000Y-52784320D01*
X150554122Y-52797005D01*
X150558243Y-52800000D01*
X150737455Y-52800000D01*
X150742091Y-52799782D01*
X150764397Y-52797673D01*
X150776099Y-52795105D01*
X150887551Y-52755966D01*
X150900484Y-52749119D01*
X150994397Y-52679754D01*
X151004754Y-52669397D01*
X151074119Y-52575484D01*
X151080966Y-52562551D01*
X151120105Y-52451099D01*
X151122673Y-52439397D01*
X151124782Y-52417091D01*
X151125000Y-52412455D01*
X151125000Y-52178180D01*
X151120878Y-52165495D01*
X151116757Y-52162500D01*
X150565680Y-52162500D01*
X150552995Y-52166622D01*
X150550000Y-52170743D01*
X150550000Y-52784320D01*
X150350000Y-52784320D01*
X150350000Y-52178180D01*
X150345878Y-52165495D01*
X150341757Y-52162500D01*
X149790680Y-52162500D01*
X149777995Y-52166622D01*
X149775000Y-52170743D01*
X149775000Y-52412455D01*
X146000000Y-52412455D01*
X146000000Y-51946820D01*
X149775000Y-51946820D01*
X149779122Y-51959505D01*
X149783243Y-51962500D01*
X150334320Y-51962500D01*
X150347005Y-51958378D01*
X150350000Y-51954257D01*
X150350000Y-51946820D01*
X150550000Y-51946820D01*
X150554122Y-51959505D01*
X150558243Y-51962500D01*
X151109320Y-51962500D01*
X151122005Y-51958378D01*
X151125000Y-51954257D01*
X151125000Y-51712545D01*
X151124782Y-51707909D01*
X151122673Y-51685603D01*
X151120105Y-51673901D01*
X151080966Y-51562449D01*
X151074119Y-51549516D01*
X151004754Y-51455603D01*
X150994397Y-51445246D01*
X150900484Y-51375881D01*
X150887551Y-51369034D01*
X150776099Y-51329895D01*
X150764397Y-51327327D01*
X150742091Y-51325218D01*
X150737455Y-51325000D01*
X150565680Y-51325000D01*
X150552995Y-51329122D01*
X150550000Y-51333243D01*
X150550000Y-51946820D01*
X150350000Y-51946820D01*
X150350000Y-51340680D01*
X150345878Y-51327995D01*
X150341757Y-51325000D01*
X150162545Y-51325000D01*
X150157909Y-51325218D01*
X150135603Y-51327327D01*
X150123901Y-51329895D01*
X150012449Y-51369034D01*
X149999516Y-51375881D01*
X149905603Y-51445246D01*
X149895246Y-51455603D01*
X149825881Y-51549516D01*
X149819034Y-51562449D01*
X149779895Y-51673901D01*
X149777327Y-51685603D01*
X149775218Y-51707909D01*
X149775000Y-51712545D01*
X149775000Y-51946820D01*
X146000000Y-51946820D01*
X146000000Y-50819748D01*
X147799500Y-50819748D01*
X147811133Y-50878231D01*
X147855448Y-50944552D01*
X147921769Y-50988867D01*
X147931332Y-50990769D01*
X147931334Y-50990770D01*
X147950349Y-50994552D01*
X147980252Y-51000500D01*
X149219748Y-51000500D01*
X149249651Y-50994552D01*
X149268666Y-50990770D01*
X149268668Y-50990769D01*
X149278231Y-50988867D01*
X149300908Y-50973714D01*
X149359798Y-50957105D01*
X149393796Y-50964565D01*
X149437238Y-50982559D01*
X149437240Y-50982560D01*
X149443238Y-50985044D01*
X149600000Y-51005682D01*
X149632928Y-51001347D01*
X149645849Y-51000500D01*
X149934102Y-51000500D01*
X149992919Y-51019866D01*
X150005232Y-51028961D01*
X150129500Y-51072601D01*
X150135504Y-51073169D01*
X150135506Y-51073169D01*
X150157856Y-51075282D01*
X150157866Y-51075282D01*
X150160167Y-51075500D01*
X150449875Y-51075500D01*
X150739832Y-51075499D01*
X150770500Y-51072601D01*
X150776184Y-51070605D01*
X150776188Y-51070604D01*
X150887786Y-51031413D01*
X150894768Y-51028961D01*
X150991700Y-50957367D01*
X151050517Y-50938000D01*
X151550500Y-50938000D01*
X151608691Y-50956907D01*
X151644655Y-51006407D01*
X151649500Y-51037000D01*
X151649500Y-51069748D01*
X151661133Y-51128231D01*
X151705448Y-51194552D01*
X151771769Y-51238867D01*
X151781332Y-51240769D01*
X151781334Y-51240770D01*
X151803838Y-51245246D01*
X151830252Y-51250500D01*
X153869748Y-51250500D01*
X153896162Y-51245246D01*
X153918666Y-51240770D01*
X153918668Y-51240769D01*
X153928231Y-51238867D01*
X153994552Y-51194552D01*
X154038867Y-51128231D01*
X154050500Y-51069748D01*
X154050500Y-49530252D01*
X154043725Y-49496191D01*
X154040770Y-49481334D01*
X154040769Y-49481332D01*
X154038867Y-49471769D01*
X153994552Y-49405448D01*
X153928231Y-49361133D01*
X153918668Y-49359231D01*
X153918666Y-49359230D01*
X153895995Y-49354721D01*
X153869748Y-49349500D01*
X151830252Y-49349500D01*
X151804005Y-49354721D01*
X151781334Y-49359230D01*
X151781332Y-49359231D01*
X151771769Y-49361133D01*
X151705448Y-49405448D01*
X151661133Y-49471769D01*
X151659231Y-49481332D01*
X151659230Y-49481334D01*
X151656275Y-49496191D01*
X151649500Y-49530252D01*
X151649500Y-49638000D01*
X151630593Y-49696191D01*
X151581093Y-49732155D01*
X151550500Y-49737000D01*
X151050517Y-49737000D01*
X150991699Y-49717633D01*
X150894768Y-49646039D01*
X150770500Y-49602399D01*
X150764496Y-49601831D01*
X150764494Y-49601831D01*
X150742144Y-49599718D01*
X150742134Y-49599718D01*
X150739833Y-49599500D01*
X150450125Y-49599500D01*
X150160168Y-49599501D01*
X150129500Y-49602399D01*
X150123816Y-49604395D01*
X150123812Y-49604396D01*
X150018701Y-49641309D01*
X150005232Y-49646039D01*
X149899289Y-49724289D01*
X149898912Y-49723779D01*
X149849378Y-49749017D01*
X149788946Y-49739446D01*
X149773632Y-49729784D01*
X149702841Y-49675464D01*
X149556762Y-49614956D01*
X149480432Y-49604907D01*
X149473725Y-49604024D01*
X149418501Y-49577687D01*
X149397275Y-49539193D01*
X149394501Y-49540342D01*
X149390770Y-49531335D01*
X149388867Y-49521769D01*
X149344552Y-49455448D01*
X149278231Y-49411133D01*
X149268668Y-49409231D01*
X149268666Y-49409230D01*
X149245995Y-49404721D01*
X149219748Y-49399500D01*
X147980252Y-49399500D01*
X147954005Y-49404721D01*
X147931334Y-49409230D01*
X147931332Y-49409231D01*
X147921769Y-49411133D01*
X147855448Y-49455448D01*
X147811133Y-49521769D01*
X147809231Y-49531332D01*
X147809230Y-49531334D01*
X147807246Y-49541309D01*
X147799500Y-49580252D01*
X147799500Y-50819748D01*
X146000000Y-50819748D01*
X146000000Y-48019748D01*
X147799500Y-48019748D01*
X147811133Y-48078231D01*
X147855448Y-48144552D01*
X147921769Y-48188867D01*
X147931332Y-48190769D01*
X147931334Y-48190770D01*
X147954005Y-48195279D01*
X147980252Y-48200500D01*
X149219748Y-48200500D01*
X149245995Y-48195279D01*
X149268666Y-48190770D01*
X149268668Y-48190769D01*
X149278231Y-48188867D01*
X149344552Y-48144552D01*
X149388867Y-48078231D01*
X149400500Y-48019748D01*
X149400500Y-47372667D01*
X149974500Y-47372667D01*
X149974501Y-48077332D01*
X149977399Y-48108000D01*
X149979395Y-48113684D01*
X149979396Y-48113688D01*
X150016972Y-48220686D01*
X150021039Y-48232268D01*
X150099289Y-48338211D01*
X150205232Y-48416461D01*
X150212214Y-48418913D01*
X150228124Y-48424500D01*
X150329500Y-48460101D01*
X150335504Y-48460669D01*
X150335506Y-48460669D01*
X150357856Y-48462782D01*
X150357866Y-48462782D01*
X150360167Y-48463000D01*
X150649875Y-48463000D01*
X150939832Y-48462999D01*
X150970500Y-48460101D01*
X150976184Y-48458105D01*
X150976188Y-48458104D01*
X151087786Y-48418913D01*
X151094768Y-48416461D01*
X151191700Y-48344867D01*
X151250517Y-48325500D01*
X151550500Y-48325500D01*
X151608691Y-48344407D01*
X151644655Y-48393907D01*
X151649500Y-48424500D01*
X151649500Y-48769748D01*
X151654230Y-48793529D01*
X151656014Y-48802494D01*
X151661133Y-48828231D01*
X151705448Y-48894552D01*
X151771769Y-48938867D01*
X151781332Y-48940769D01*
X151781334Y-48940770D01*
X151804005Y-48945279D01*
X151830252Y-48950500D01*
X157850500Y-48950500D01*
X157908691Y-48969407D01*
X157944655Y-49018907D01*
X157949500Y-49049500D01*
X157949500Y-49919748D01*
X157961133Y-49978231D01*
X158005448Y-50044552D01*
X158071769Y-50088867D01*
X158081332Y-50090769D01*
X158081334Y-50090770D01*
X158104005Y-50095279D01*
X158130252Y-50100500D01*
X158450500Y-50100500D01*
X158508691Y-50119407D01*
X158544655Y-50168907D01*
X158549500Y-50199500D01*
X158549500Y-51904151D01*
X158548653Y-51917072D01*
X158544318Y-51950000D01*
X158549500Y-51989361D01*
X158564956Y-52106762D01*
X158625464Y-52252841D01*
X158721718Y-52378282D01*
X158726863Y-52382230D01*
X158726864Y-52382231D01*
X158748067Y-52398501D01*
X158757802Y-52407038D01*
X159280467Y-52929703D01*
X159288999Y-52939432D01*
X159309218Y-52965782D01*
X159340713Y-52989949D01*
X159340714Y-52989950D01*
X159434659Y-53062036D01*
X159580738Y-53122544D01*
X159737500Y-53143182D01*
X159770428Y-53138847D01*
X159783349Y-53138000D01*
X160199483Y-53138000D01*
X160258300Y-53157367D01*
X160355232Y-53228961D01*
X160479500Y-53272601D01*
X160485504Y-53273169D01*
X160485506Y-53273169D01*
X160507856Y-53275282D01*
X160507866Y-53275282D01*
X160510167Y-53275500D01*
X160799875Y-53275500D01*
X161089832Y-53275499D01*
X161120500Y-53272601D01*
X161126184Y-53270605D01*
X161126188Y-53270604D01*
X161237786Y-53231413D01*
X161244768Y-53228961D01*
X161350711Y-53150711D01*
X161428961Y-53044768D01*
X161472601Y-52920500D01*
X161473940Y-52906340D01*
X161475282Y-52892144D01*
X161475282Y-52892134D01*
X161475500Y-52889833D01*
X161475500Y-52762000D01*
X161494407Y-52703809D01*
X161543907Y-52667845D01*
X161574500Y-52663000D01*
X161850500Y-52663000D01*
X161908691Y-52681907D01*
X161944655Y-52731407D01*
X161949500Y-52762000D01*
X161949500Y-52839748D01*
X161961133Y-52898231D01*
X162005448Y-52964552D01*
X162071769Y-53008867D01*
X162081332Y-53010769D01*
X162081334Y-53010770D01*
X162104005Y-53015279D01*
X162130252Y-53020500D01*
X162569748Y-53020500D01*
X162595995Y-53015279D01*
X162618666Y-53010770D01*
X162618668Y-53010769D01*
X162628231Y-53008867D01*
X162694552Y-52964552D01*
X162738867Y-52898231D01*
X162750500Y-52839748D01*
X162750500Y-51300252D01*
X162738867Y-51241769D01*
X162694552Y-51175448D01*
X162628231Y-51131133D01*
X162618668Y-51129231D01*
X162618666Y-51129230D01*
X162595995Y-51124721D01*
X162569748Y-51119500D01*
X162130252Y-51119500D01*
X162104005Y-51124721D01*
X162081334Y-51129230D01*
X162081332Y-51129231D01*
X162071769Y-51131133D01*
X162005448Y-51175448D01*
X161961133Y-51241769D01*
X161949500Y-51300252D01*
X161949500Y-51913000D01*
X161930593Y-51971191D01*
X161881093Y-52007155D01*
X161850500Y-52012000D01*
X161465449Y-52012000D01*
X161407258Y-51993093D01*
X161385817Y-51971819D01*
X161350711Y-51924289D01*
X161244768Y-51846039D01*
X161120500Y-51802399D01*
X161114496Y-51801831D01*
X161114494Y-51801831D01*
X161092144Y-51799718D01*
X161092134Y-51799718D01*
X161089833Y-51799500D01*
X160800125Y-51799500D01*
X160510168Y-51799501D01*
X160479500Y-51802399D01*
X160473816Y-51804395D01*
X160473812Y-51804396D01*
X160362214Y-51843587D01*
X160355232Y-51846039D01*
X160259059Y-51917073D01*
X160258301Y-51917633D01*
X160199483Y-51937000D01*
X160027243Y-51937000D01*
X159969052Y-51918093D01*
X159957240Y-51908004D01*
X159779497Y-51730262D01*
X159751719Y-51675745D01*
X159750500Y-51660258D01*
X159750500Y-50199500D01*
X159769407Y-50141309D01*
X159818907Y-50105345D01*
X159849500Y-50100500D01*
X160169748Y-50100500D01*
X160195995Y-50095279D01*
X160218666Y-50090770D01*
X160218668Y-50090769D01*
X160228231Y-50088867D01*
X160294552Y-50044552D01*
X160338867Y-49978231D01*
X160350500Y-49919748D01*
X160350500Y-49699500D01*
X160369407Y-49641309D01*
X160418907Y-49605345D01*
X160449500Y-49600500D01*
X160975500Y-49600500D01*
X161033691Y-49619407D01*
X161069655Y-49668907D01*
X161074500Y-49699500D01*
X161074500Y-49981466D01*
X161074123Y-49990095D01*
X161070736Y-50028807D01*
X161072978Y-50037174D01*
X161080796Y-50066349D01*
X161082666Y-50074784D01*
X161085485Y-50090770D01*
X161089412Y-50113045D01*
X161093742Y-50120544D01*
X161095738Y-50126029D01*
X161098204Y-50131316D01*
X161100446Y-50139684D01*
X161120909Y-50168907D01*
X161122732Y-50171511D01*
X161127371Y-50178792D01*
X161146806Y-50212455D01*
X161165270Y-50227948D01*
X161176576Y-50237435D01*
X161182944Y-50243270D01*
X161556737Y-50617064D01*
X161562559Y-50623417D01*
X161587545Y-50653194D01*
X161595042Y-50657523D01*
X161595044Y-50657524D01*
X161621206Y-50672628D01*
X161628484Y-50677264D01*
X161660316Y-50699553D01*
X161668682Y-50701795D01*
X161673973Y-50704262D01*
X161679450Y-50706255D01*
X161686955Y-50710588D01*
X161711243Y-50714870D01*
X161715295Y-50715585D01*
X161768042Y-50743013D01*
X161769788Y-50744755D01*
X161777287Y-50752241D01*
X161785643Y-50755935D01*
X161785644Y-50755936D01*
X161872864Y-50794496D01*
X161872866Y-50794496D01*
X161879673Y-50797506D01*
X161887067Y-50798368D01*
X161902378Y-50800153D01*
X161905354Y-50800500D01*
X162254646Y-50800500D01*
X162272561Y-50798368D01*
X162273469Y-50798260D01*
X162273470Y-50798260D01*
X162280846Y-50797382D01*
X162287633Y-50794367D01*
X162287638Y-50794366D01*
X162360363Y-50762063D01*
X162421218Y-50755721D01*
X162440580Y-50761993D01*
X162512980Y-50794000D01*
X162527185Y-50797873D01*
X162542580Y-50799668D01*
X162548292Y-50800000D01*
X162604320Y-50800000D01*
X162617005Y-50795878D01*
X162620000Y-50791757D01*
X162620000Y-50399000D01*
X162638907Y-50340809D01*
X162688407Y-50304845D01*
X162719000Y-50300000D01*
X162721000Y-50300000D01*
X162779191Y-50318907D01*
X162815155Y-50368407D01*
X162820000Y-50399000D01*
X162820000Y-50784320D01*
X162824122Y-50797005D01*
X162828243Y-50800000D01*
X162891639Y-50800000D01*
X162897485Y-50799654D01*
X162913353Y-50797766D01*
X162927519Y-50793872D01*
X163014514Y-50755230D01*
X163029321Y-50745054D01*
X163080435Y-50693850D01*
X163134927Y-50666024D01*
X163195368Y-50675543D01*
X163238670Y-50718770D01*
X163249500Y-50763792D01*
X163249500Y-52839748D01*
X163261133Y-52898231D01*
X163305448Y-52964552D01*
X163371769Y-53008867D01*
X163381332Y-53010769D01*
X163381334Y-53010770D01*
X163404005Y-53015279D01*
X163430252Y-53020500D01*
X163869748Y-53020500D01*
X163895995Y-53015279D01*
X163918666Y-53010770D01*
X163918668Y-53010769D01*
X163928231Y-53008867D01*
X163994552Y-52964552D01*
X164038867Y-52898231D01*
X164050500Y-52839748D01*
X164050500Y-52649846D01*
X171155483Y-52649846D01*
X171161847Y-52725644D01*
X171163585Y-52735111D01*
X171217674Y-52923743D01*
X171221225Y-52932711D01*
X171310919Y-53107236D01*
X171316142Y-53115341D01*
X171438037Y-53269134D01*
X171444720Y-53276055D01*
X171594164Y-53403241D01*
X171602078Y-53408742D01*
X171773373Y-53504475D01*
X171782201Y-53508332D01*
X171968838Y-53568974D01*
X171978238Y-53571041D01*
X172084432Y-53583704D01*
X172097514Y-53581113D01*
X172098955Y-53579557D01*
X172100000Y-53574803D01*
X172100000Y-53569775D01*
X172300000Y-53569775D01*
X172304122Y-53582460D01*
X172306735Y-53584359D01*
X172309679Y-53584710D01*
X172378385Y-53579424D01*
X172387876Y-53577750D01*
X172576882Y-53524978D01*
X172585862Y-53521496D01*
X172761020Y-53433017D01*
X172769155Y-53427854D01*
X172923787Y-53307042D01*
X172930771Y-53300391D01*
X173058990Y-53151848D01*
X173064546Y-53143973D01*
X173161471Y-52973353D01*
X173165392Y-52964546D01*
X173227334Y-52778346D01*
X173229469Y-52768944D01*
X173243794Y-52655556D01*
X173241294Y-52642455D01*
X173239884Y-52641130D01*
X173234829Y-52640000D01*
X172315680Y-52640000D01*
X172302995Y-52644122D01*
X172300000Y-52648243D01*
X172300000Y-53569775D01*
X172100000Y-53569775D01*
X172100000Y-52655680D01*
X172095878Y-52642995D01*
X172091757Y-52640000D01*
X171170336Y-52640000D01*
X171157651Y-52644122D01*
X171155860Y-52646586D01*
X171155483Y-52649846D01*
X164050500Y-52649846D01*
X164050500Y-52212455D01*
X168925000Y-52212455D01*
X168925218Y-52217091D01*
X168927327Y-52239397D01*
X168929895Y-52251099D01*
X168969034Y-52362551D01*
X168975881Y-52375484D01*
X169045246Y-52469397D01*
X169055603Y-52479754D01*
X169149516Y-52549119D01*
X169162449Y-52555966D01*
X169273901Y-52595105D01*
X169285603Y-52597673D01*
X169307909Y-52599782D01*
X169312545Y-52600000D01*
X169484320Y-52600000D01*
X169497005Y-52595878D01*
X169500000Y-52591757D01*
X169500000Y-52584320D01*
X169700000Y-52584320D01*
X169704122Y-52597005D01*
X169708243Y-52600000D01*
X169887455Y-52600000D01*
X169892091Y-52599782D01*
X169914397Y-52597673D01*
X169926099Y-52595105D01*
X170037551Y-52555966D01*
X170050484Y-52549119D01*
X170144397Y-52479754D01*
X170154754Y-52469397D01*
X170187977Y-52424417D01*
X171156334Y-52424417D01*
X171159016Y-52437484D01*
X171160719Y-52439039D01*
X171165165Y-52440000D01*
X172084320Y-52440000D01*
X172097005Y-52435878D01*
X172100000Y-52431757D01*
X172100000Y-52424320D01*
X172300000Y-52424320D01*
X172304122Y-52437005D01*
X172308243Y-52440000D01*
X173229596Y-52440000D01*
X173242281Y-52435878D01*
X173243854Y-52433713D01*
X173244278Y-52429818D01*
X173235459Y-52339885D01*
X173233589Y-52330437D01*
X173176869Y-52142572D01*
X173173199Y-52133668D01*
X173081072Y-51960401D01*
X173075740Y-51952376D01*
X172951716Y-51800307D01*
X172944922Y-51793466D01*
X172793721Y-51668381D01*
X172785738Y-51662997D01*
X172613114Y-51569660D01*
X172604243Y-51565931D01*
X172416775Y-51507900D01*
X172407341Y-51505963D01*
X172315594Y-51496320D01*
X172302548Y-51499093D01*
X172300881Y-51500945D01*
X172300000Y-51505088D01*
X172300000Y-52424320D01*
X172100000Y-52424320D01*
X172100000Y-51510396D01*
X172095878Y-51497711D01*
X172093563Y-51496028D01*
X172089987Y-51495627D01*
X172007117Y-51503168D01*
X171997654Y-51504974D01*
X171809407Y-51560378D01*
X171800466Y-51563991D01*
X171626573Y-51654899D01*
X171618497Y-51660184D01*
X171465571Y-51783140D01*
X171458687Y-51789881D01*
X171332551Y-51940205D01*
X171327104Y-51948159D01*
X171232573Y-52120111D01*
X171228773Y-52128976D01*
X171169440Y-52316019D01*
X171167435Y-52325450D01*
X171156334Y-52424417D01*
X170187977Y-52424417D01*
X170224119Y-52375484D01*
X170230966Y-52362551D01*
X170270105Y-52251099D01*
X170272673Y-52239397D01*
X170274782Y-52217091D01*
X170275000Y-52212455D01*
X170275000Y-51978180D01*
X170270878Y-51965495D01*
X170266757Y-51962500D01*
X169715680Y-51962500D01*
X169702995Y-51966622D01*
X169700000Y-51970743D01*
X169700000Y-52584320D01*
X169500000Y-52584320D01*
X169500000Y-51978180D01*
X169495878Y-51965495D01*
X169491757Y-51962500D01*
X168940680Y-51962500D01*
X168927995Y-51966622D01*
X168925000Y-51970743D01*
X168925000Y-52212455D01*
X164050500Y-52212455D01*
X164050500Y-51746820D01*
X168925000Y-51746820D01*
X168929122Y-51759505D01*
X168933243Y-51762500D01*
X169484320Y-51762500D01*
X169497005Y-51758378D01*
X169500000Y-51754257D01*
X169500000Y-51746820D01*
X169700000Y-51746820D01*
X169704122Y-51759505D01*
X169708243Y-51762500D01*
X170259320Y-51762500D01*
X170272005Y-51758378D01*
X170275000Y-51754257D01*
X170275000Y-51512545D01*
X170274782Y-51507909D01*
X170272673Y-51485603D01*
X170270105Y-51473901D01*
X170230966Y-51362449D01*
X170224119Y-51349516D01*
X170154754Y-51255603D01*
X170144397Y-51245246D01*
X170050484Y-51175881D01*
X170037551Y-51169034D01*
X169926099Y-51129895D01*
X169914397Y-51127327D01*
X169892091Y-51125218D01*
X169887455Y-51125000D01*
X169715680Y-51125000D01*
X169702995Y-51129122D01*
X169700000Y-51133243D01*
X169700000Y-51746820D01*
X169500000Y-51746820D01*
X169500000Y-51140680D01*
X169495878Y-51127995D01*
X169491757Y-51125000D01*
X169312545Y-51125000D01*
X169307909Y-51125218D01*
X169285603Y-51127327D01*
X169273901Y-51129895D01*
X169162449Y-51169034D01*
X169149516Y-51175881D01*
X169055603Y-51245246D01*
X169045246Y-51255603D01*
X168975881Y-51349516D01*
X168969034Y-51362449D01*
X168929895Y-51473901D01*
X168927327Y-51485603D01*
X168925218Y-51507909D01*
X168925000Y-51512545D01*
X168925000Y-51746820D01*
X164050500Y-51746820D01*
X164050500Y-50809448D01*
X164069407Y-50751257D01*
X164118907Y-50715293D01*
X164168813Y-50712350D01*
X164177371Y-50714052D01*
X164186995Y-50715000D01*
X164284320Y-50715000D01*
X164297005Y-50710878D01*
X164300000Y-50706757D01*
X164300000Y-50414500D01*
X164318907Y-50356309D01*
X164368407Y-50320345D01*
X164398951Y-50315500D01*
X164399951Y-50315500D01*
X164400953Y-50315499D01*
X164459151Y-50334377D01*
X164495139Y-50383859D01*
X164500000Y-50414499D01*
X164500000Y-50699319D01*
X164504122Y-50712004D01*
X164508243Y-50714999D01*
X164613002Y-50714999D01*
X164622629Y-50714051D01*
X164683409Y-50701962D01*
X164701079Y-50694643D01*
X164770037Y-50648566D01*
X164783564Y-50635039D01*
X164811674Y-50592971D01*
X164859725Y-50555093D01*
X164920863Y-50552691D01*
X164934019Y-50557428D01*
X165017864Y-50594496D01*
X165017866Y-50594496D01*
X165024673Y-50597506D01*
X165032067Y-50598368D01*
X165047378Y-50600153D01*
X165050354Y-50600500D01*
X165399646Y-50600500D01*
X165417561Y-50598368D01*
X165418469Y-50598260D01*
X165418470Y-50598260D01*
X165425846Y-50597382D01*
X165504746Y-50562336D01*
X165565600Y-50555993D01*
X165584959Y-50562265D01*
X165664673Y-50597506D01*
X165672067Y-50598368D01*
X165687378Y-50600153D01*
X165690354Y-50600500D01*
X165825691Y-50600500D01*
X165841177Y-50601719D01*
X165865000Y-50605492D01*
X165888823Y-50601719D01*
X165904309Y-50600500D01*
X166039646Y-50600500D01*
X166057561Y-50598368D01*
X166058469Y-50598260D01*
X166058470Y-50598260D01*
X166065846Y-50597382D01*
X166168153Y-50551939D01*
X166175434Y-50544646D01*
X166240786Y-50479179D01*
X166247241Y-50472713D01*
X166292506Y-50370327D01*
X166293368Y-50362932D01*
X166294587Y-50358461D01*
X166328133Y-50307292D01*
X166390101Y-50285500D01*
X166391000Y-50285500D01*
X166449191Y-50304407D01*
X166485155Y-50353907D01*
X166490000Y-50384500D01*
X166490001Y-50974270D01*
X166490949Y-50983896D01*
X166502313Y-51041030D01*
X166509633Y-51058702D01*
X166552946Y-51123525D01*
X166566475Y-51137054D01*
X166631296Y-51180366D01*
X166648971Y-51187688D01*
X166706105Y-51199052D01*
X166715728Y-51200000D01*
X166844271Y-51199999D01*
X166853896Y-51199051D01*
X166911030Y-51187687D01*
X166928701Y-51180368D01*
X166977303Y-51147893D01*
X167036191Y-51131285D01*
X167059196Y-51136332D01*
X167059211Y-51136256D01*
X167130819Y-51150500D01*
X167200000Y-51150500D01*
X167269180Y-51150499D01*
X167282282Y-51147893D01*
X167331228Y-51138158D01*
X167331229Y-51138157D01*
X167340789Y-51136256D01*
X167348894Y-51130840D01*
X167357905Y-51127108D01*
X167358840Y-51129366D01*
X167404333Y-51116534D01*
X167441477Y-51128603D01*
X167442291Y-51126637D01*
X167468968Y-51137687D01*
X167526105Y-51149052D01*
X167535728Y-51150000D01*
X167664271Y-51149999D01*
X167673896Y-51149051D01*
X167731033Y-51137687D01*
X167757710Y-51126637D01*
X167758746Y-51129139D01*
X167803431Y-51116534D01*
X167841370Y-51128861D01*
X167842096Y-51127108D01*
X167851104Y-51130839D01*
X167859211Y-51136256D01*
X167930819Y-51150500D01*
X168000000Y-51150500D01*
X168069180Y-51150499D01*
X168082282Y-51147893D01*
X168131228Y-51138158D01*
X168131229Y-51138157D01*
X168140789Y-51136256D01*
X168221996Y-51081996D01*
X168228274Y-51072601D01*
X168270839Y-51008896D01*
X168276256Y-51000789D01*
X168290500Y-50929181D01*
X168290500Y-50301917D01*
X168296099Y-50272767D01*
X168295642Y-50272656D01*
X168297293Y-50265871D01*
X168299883Y-50259378D01*
X168300500Y-50253085D01*
X168300500Y-49599500D01*
X168319407Y-49541309D01*
X168368907Y-49505345D01*
X168399500Y-49500500D01*
X168876904Y-49500500D01*
X168935095Y-49519407D01*
X168971059Y-49568907D01*
X168970312Y-49632302D01*
X168927399Y-49754500D01*
X168926831Y-49760504D01*
X168926831Y-49760506D01*
X168925559Y-49773967D01*
X168924500Y-49785167D01*
X168924501Y-50489832D01*
X168927399Y-50520500D01*
X168929395Y-50526184D01*
X168929396Y-50526188D01*
X168955493Y-50600500D01*
X168971039Y-50644768D01*
X169049289Y-50750711D01*
X169155232Y-50828961D01*
X169279500Y-50872601D01*
X169285504Y-50873169D01*
X169285506Y-50873169D01*
X169307856Y-50875282D01*
X169307866Y-50875282D01*
X169310167Y-50875500D01*
X169599875Y-50875500D01*
X169889832Y-50875499D01*
X169920500Y-50872601D01*
X169926184Y-50870605D01*
X169926188Y-50870604D01*
X170037786Y-50831413D01*
X170044768Y-50828961D01*
X170141700Y-50757367D01*
X170200517Y-50738000D01*
X171050500Y-50738000D01*
X171108691Y-50756907D01*
X171144655Y-50806407D01*
X171149500Y-50837000D01*
X171149500Y-50869748D01*
X171161133Y-50928231D01*
X171205448Y-50994552D01*
X171271769Y-51038867D01*
X171281332Y-51040769D01*
X171281334Y-51040770D01*
X171304005Y-51045279D01*
X171330252Y-51050500D01*
X173069748Y-51050500D01*
X173095995Y-51045279D01*
X173118666Y-51040770D01*
X173118668Y-51040769D01*
X173128231Y-51038867D01*
X173194552Y-50994552D01*
X173238867Y-50928231D01*
X173250500Y-50869748D01*
X173250500Y-49130252D01*
X173238867Y-49071769D01*
X173194552Y-49005448D01*
X173128231Y-48961133D01*
X173118668Y-48959231D01*
X173118666Y-48959230D01*
X173095995Y-48954721D01*
X173069748Y-48949500D01*
X171330252Y-48949500D01*
X171304005Y-48954721D01*
X171281334Y-48959230D01*
X171281332Y-48959231D01*
X171271769Y-48961133D01*
X171205448Y-49005448D01*
X171161133Y-49071769D01*
X171149500Y-49130252D01*
X171149500Y-49438000D01*
X171130593Y-49496191D01*
X171081093Y-49532155D01*
X171050500Y-49537000D01*
X170200519Y-49537000D01*
X170141734Y-49517657D01*
X170140715Y-49516905D01*
X170105120Y-49467139D01*
X170100500Y-49437248D01*
X170100500Y-49067166D01*
X170101919Y-49054465D01*
X170101897Y-49054463D01*
X170102463Y-49047432D01*
X170104019Y-49040553D01*
X170102467Y-49015546D01*
X170100844Y-48989375D01*
X170100656Y-48982641D01*
X170100926Y-48938429D01*
X170100926Y-48938428D01*
X170100969Y-48931376D01*
X170099030Y-48924592D01*
X170098816Y-48923028D01*
X170095899Y-48906050D01*
X170095578Y-48904499D01*
X170095141Y-48897462D01*
X170092746Y-48890827D01*
X170091658Y-48887813D01*
X170086777Y-48868236D01*
X170086323Y-48865066D01*
X170085323Y-48858082D01*
X170078950Y-48844064D01*
X170074093Y-48833381D01*
X170069028Y-48819616D01*
X170063510Y-48800310D01*
X170061572Y-48793529D01*
X170057808Y-48787564D01*
X170057154Y-48786101D01*
X170049603Y-48770653D01*
X170048854Y-48769245D01*
X170046460Y-48762613D01*
X170040408Y-48754328D01*
X170030232Y-48736914D01*
X170025984Y-48727572D01*
X170008277Y-48707022D01*
X169999549Y-48695227D01*
X169988837Y-48678249D01*
X169988833Y-48678245D01*
X169985070Y-48672280D01*
X169961967Y-48651877D01*
X169952511Y-48642304D01*
X169943127Y-48631413D01*
X169932400Y-48618963D01*
X169925189Y-48614289D01*
X169909032Y-48601218D01*
X169628494Y-48320680D01*
X169628491Y-48320678D01*
X169601393Y-48293579D01*
X169593422Y-48283601D01*
X169593404Y-48283616D01*
X169588836Y-48278249D01*
X169585070Y-48272280D01*
X169578698Y-48266652D01*
X169544791Y-48236707D01*
X169540321Y-48232507D01*
X169528494Y-48220680D01*
X169528491Y-48220678D01*
X169001395Y-47693581D01*
X168993421Y-47683601D01*
X168993404Y-47683616D01*
X168988835Y-47678248D01*
X168985070Y-47672280D01*
X168944791Y-47636707D01*
X168940321Y-47632507D01*
X168928494Y-47620680D01*
X168919447Y-47613900D01*
X168913301Y-47608896D01*
X168877612Y-47577377D01*
X168868329Y-47573018D01*
X168851034Y-47562627D01*
X168842824Y-47556474D01*
X168821047Y-47548310D01*
X168798254Y-47539765D01*
X168790934Y-47536680D01*
X168754226Y-47519446D01*
X168754222Y-47519445D01*
X168747837Y-47516447D01*
X168740869Y-47515362D01*
X168740865Y-47515361D01*
X168737708Y-47514870D01*
X168718180Y-47509747D01*
X168715180Y-47508622D01*
X168715178Y-47508622D01*
X168708580Y-47506148D01*
X168661092Y-47502619D01*
X168653207Y-47501713D01*
X168642772Y-47500088D01*
X168642764Y-47500087D01*
X168638991Y-47499500D01*
X168622791Y-47499500D01*
X168615456Y-47499228D01*
X168604662Y-47498426D01*
X168548033Y-47475257D01*
X168515837Y-47423228D01*
X168513000Y-47399698D01*
X168513000Y-46747655D01*
X168524961Y-46703017D01*
X168524536Y-46702841D01*
X168525873Y-46699613D01*
X168544167Y-46655448D01*
X168582561Y-46562758D01*
X168582562Y-46562754D01*
X168585044Y-46556762D01*
X168586762Y-46543711D01*
X168610709Y-46491103D01*
X168617010Y-46483968D01*
X168669701Y-46452866D01*
X168691216Y-46450500D01*
X169069748Y-46450500D01*
X169095995Y-46445279D01*
X169118666Y-46440770D01*
X169118668Y-46440769D01*
X169128231Y-46438867D01*
X169194552Y-46394552D01*
X169238867Y-46328231D01*
X169250500Y-46269748D01*
X169250500Y-45509846D01*
X169695483Y-45509846D01*
X169701847Y-45585644D01*
X169703585Y-45595111D01*
X169757674Y-45783743D01*
X169761225Y-45792711D01*
X169850919Y-45967236D01*
X169856142Y-45975341D01*
X169978037Y-46129134D01*
X169984720Y-46136055D01*
X170134164Y-46263241D01*
X170142078Y-46268742D01*
X170313373Y-46364475D01*
X170322201Y-46368332D01*
X170508838Y-46428974D01*
X170518238Y-46431041D01*
X170624432Y-46443704D01*
X170637514Y-46441113D01*
X170638955Y-46439557D01*
X170640000Y-46434803D01*
X170640000Y-46429775D01*
X170840000Y-46429775D01*
X170844122Y-46442460D01*
X170846735Y-46444359D01*
X170849679Y-46444710D01*
X170918385Y-46439424D01*
X170927876Y-46437750D01*
X171116882Y-46384978D01*
X171125862Y-46381496D01*
X171301020Y-46293017D01*
X171309155Y-46287854D01*
X171463787Y-46167042D01*
X171470771Y-46160391D01*
X171598990Y-46011848D01*
X171604546Y-46003973D01*
X171701471Y-45833353D01*
X171705392Y-45824546D01*
X171767334Y-45638346D01*
X171769469Y-45628944D01*
X171783794Y-45515556D01*
X171781294Y-45502455D01*
X171779884Y-45501130D01*
X171774829Y-45500000D01*
X170855680Y-45500000D01*
X170842995Y-45504122D01*
X170840000Y-45508243D01*
X170840000Y-46429775D01*
X170640000Y-46429775D01*
X170640000Y-45515680D01*
X170635878Y-45502995D01*
X170631757Y-45500000D01*
X169710336Y-45500000D01*
X169697651Y-45504122D01*
X169695860Y-45506586D01*
X169695483Y-45509846D01*
X169250500Y-45509846D01*
X169250500Y-45284417D01*
X169696334Y-45284417D01*
X169699016Y-45297484D01*
X169700719Y-45299039D01*
X169705165Y-45300000D01*
X170624320Y-45300000D01*
X170637005Y-45295878D01*
X170640000Y-45291757D01*
X170640000Y-45284320D01*
X170840000Y-45284320D01*
X170844122Y-45297005D01*
X170848243Y-45300000D01*
X171769596Y-45300000D01*
X171782281Y-45295878D01*
X171783854Y-45293713D01*
X171784278Y-45289818D01*
X171775459Y-45199885D01*
X171773589Y-45190437D01*
X171716869Y-45002572D01*
X171713199Y-44993668D01*
X171621072Y-44820401D01*
X171615740Y-44812376D01*
X171491716Y-44660307D01*
X171484922Y-44653466D01*
X171333721Y-44528381D01*
X171325738Y-44522997D01*
X171153114Y-44429660D01*
X171144243Y-44425931D01*
X170956775Y-44367900D01*
X170947341Y-44365963D01*
X170855594Y-44356320D01*
X170842548Y-44359093D01*
X170840881Y-44360945D01*
X170840000Y-44365088D01*
X170840000Y-45284320D01*
X170640000Y-45284320D01*
X170640000Y-44370396D01*
X170635878Y-44357711D01*
X170633563Y-44356028D01*
X170629987Y-44355627D01*
X170547117Y-44363168D01*
X170537654Y-44364974D01*
X170349407Y-44420378D01*
X170340466Y-44423991D01*
X170166573Y-44514899D01*
X170158497Y-44520184D01*
X170005571Y-44643140D01*
X169998687Y-44649881D01*
X169872551Y-44800205D01*
X169867104Y-44808159D01*
X169772573Y-44980111D01*
X169768773Y-44988976D01*
X169709440Y-45176019D01*
X169707435Y-45185450D01*
X169696334Y-45284417D01*
X169250500Y-45284417D01*
X169250500Y-44530252D01*
X169238867Y-44471769D01*
X169194552Y-44405448D01*
X169128231Y-44361133D01*
X169118668Y-44359231D01*
X169118666Y-44359230D01*
X169095995Y-44354721D01*
X169069748Y-44349500D01*
X167330252Y-44349500D01*
X167304005Y-44354721D01*
X167281334Y-44359230D01*
X167281332Y-44359231D01*
X167271769Y-44361133D01*
X167205448Y-44405448D01*
X167161133Y-44471769D01*
X167149500Y-44530252D01*
X167149500Y-46269748D01*
X167161133Y-46328231D01*
X167205448Y-46394552D01*
X167258162Y-46429775D01*
X167265883Y-46434934D01*
X167303761Y-46482985D01*
X167309033Y-46504325D01*
X167311153Y-46520425D01*
X167312000Y-46533349D01*
X167312000Y-47467178D01*
X167292633Y-47525996D01*
X167271039Y-47555232D01*
X167268587Y-47562214D01*
X167264792Y-47573021D01*
X167227399Y-47679500D01*
X167226832Y-47685503D01*
X167226831Y-47685506D01*
X167224719Y-47707852D01*
X167224500Y-47710167D01*
X167224500Y-47712492D01*
X167224501Y-48108430D01*
X167205594Y-48166621D01*
X167198081Y-48175758D01*
X167184107Y-48190822D01*
X167181531Y-48193498D01*
X167167752Y-48207277D01*
X167165207Y-48210987D01*
X167161771Y-48214900D01*
X167141599Y-48236646D01*
X167138212Y-48245134D01*
X167138212Y-48245135D01*
X167137334Y-48247336D01*
X167127020Y-48266652D01*
X167125679Y-48268607D01*
X167125678Y-48268610D01*
X167120508Y-48276146D01*
X167118398Y-48285038D01*
X167114359Y-48302058D01*
X167109986Y-48315884D01*
X167106150Y-48325500D01*
X167100117Y-48340622D01*
X167099500Y-48346915D01*
X167099500Y-48353084D01*
X167096825Y-48375943D01*
X167094660Y-48385066D01*
X167098596Y-48413987D01*
X167099500Y-48427337D01*
X167099500Y-48634522D01*
X167080593Y-48692713D01*
X167070503Y-48704526D01*
X166994870Y-48780158D01*
X166991739Y-48782861D01*
X166987251Y-48785055D01*
X166981036Y-48791755D01*
X166953628Y-48821301D01*
X166951052Y-48823977D01*
X166937272Y-48837757D01*
X166934727Y-48841467D01*
X166931291Y-48845380D01*
X166911119Y-48867126D01*
X166907732Y-48875614D01*
X166907732Y-48875615D01*
X166906854Y-48877816D01*
X166896540Y-48897132D01*
X166895199Y-48899087D01*
X166895198Y-48899090D01*
X166890028Y-48906626D01*
X166885125Y-48927287D01*
X166883879Y-48932538D01*
X166879506Y-48946364D01*
X166873614Y-48961133D01*
X166869637Y-48971102D01*
X166869020Y-48977395D01*
X166869020Y-48983564D01*
X166866345Y-49006423D01*
X166864180Y-49015546D01*
X166862217Y-49015080D01*
X166844687Y-49061219D01*
X166793487Y-49094718D01*
X166776080Y-49097811D01*
X166769800Y-49098355D01*
X166760838Y-49099131D01*
X166752298Y-49099500D01*
X166260501Y-49099500D01*
X166202310Y-49080593D01*
X166190559Y-49070565D01*
X166174183Y-49054217D01*
X166174181Y-49054215D01*
X166167713Y-49047759D01*
X166090353Y-49013558D01*
X166072136Y-49005504D01*
X166072134Y-49005504D01*
X166065327Y-49002494D01*
X166051322Y-49000861D01*
X166042494Y-48999832D01*
X166042493Y-48999832D01*
X166039646Y-48999500D01*
X165904309Y-48999500D01*
X165888822Y-48998281D01*
X165872697Y-48995727D01*
X165865000Y-48994508D01*
X165857303Y-48995727D01*
X165841178Y-48998281D01*
X165825691Y-48999500D01*
X165690354Y-48999500D01*
X165673951Y-49001452D01*
X165671531Y-49001740D01*
X165671530Y-49001740D01*
X165664154Y-49002618D01*
X165585254Y-49037664D01*
X165524400Y-49044007D01*
X165505041Y-49037735D01*
X165425327Y-49002494D01*
X165411322Y-49000861D01*
X165402494Y-48999832D01*
X165402493Y-48999832D01*
X165399646Y-48999500D01*
X165050354Y-48999500D01*
X165033951Y-49001452D01*
X165031531Y-49001740D01*
X165031530Y-49001740D01*
X165024154Y-49002618D01*
X164921847Y-49048061D01*
X164915390Y-49054529D01*
X164915389Y-49054530D01*
X164913817Y-49056105D01*
X164842759Y-49127287D01*
X164840007Y-49133513D01*
X164827223Y-49148166D01*
X164826906Y-49148454D01*
X164825051Y-49149977D01*
X164820685Y-49154343D01*
X164802629Y-49168615D01*
X164802432Y-49168736D01*
X164802431Y-49168737D01*
X164794652Y-49173532D01*
X164776983Y-49196768D01*
X164768188Y-49206840D01*
X164740480Y-49234549D01*
X164716460Y-49258569D01*
X164661944Y-49286347D01*
X164630921Y-49285737D01*
X164630903Y-49285925D01*
X164628518Y-49285690D01*
X164627139Y-49285663D01*
X164626057Y-49285448D01*
X164621291Y-49284500D01*
X164400046Y-49284500D01*
X164178710Y-49284501D01*
X164173944Y-49285449D01*
X164114108Y-49297350D01*
X164114107Y-49297351D01*
X164104547Y-49299252D01*
X164096442Y-49304668D01*
X164096441Y-49304668D01*
X164059309Y-49329479D01*
X164000421Y-49346088D01*
X163949305Y-49329479D01*
X163901275Y-49297386D01*
X163901273Y-49297385D01*
X163893167Y-49291969D01*
X163817913Y-49277000D01*
X163798388Y-49277000D01*
X163499499Y-49277001D01*
X163441310Y-49258094D01*
X163405346Y-49208594D01*
X163400500Y-49178001D01*
X163400500Y-49055354D01*
X163397382Y-49029154D01*
X163351939Y-48926847D01*
X163272713Y-48847759D01*
X163206907Y-48818666D01*
X163177136Y-48805504D01*
X163177134Y-48805504D01*
X163170327Y-48802494D01*
X163144646Y-48799500D01*
X162889460Y-48799500D01*
X162831269Y-48780593D01*
X162795305Y-48731093D01*
X162791679Y-48715985D01*
X162786384Y-48682551D01*
X162781627Y-48667909D01*
X162731177Y-48568894D01*
X162722135Y-48556449D01*
X162643551Y-48477865D01*
X162631106Y-48468823D01*
X162532088Y-48418371D01*
X162517453Y-48413616D01*
X162435327Y-48400609D01*
X162427588Y-48400000D01*
X162315680Y-48400000D01*
X162302995Y-48404122D01*
X162300000Y-48408243D01*
X162300000Y-49201000D01*
X162281093Y-49259191D01*
X162231593Y-49295155D01*
X162201000Y-49300000D01*
X162199000Y-49300000D01*
X162140809Y-49281093D01*
X162104845Y-49231593D01*
X162100000Y-49201000D01*
X162100000Y-48415681D01*
X162095878Y-48402996D01*
X162091757Y-48400001D01*
X161972415Y-48400001D01*
X161964671Y-48400611D01*
X161882551Y-48413616D01*
X161867909Y-48418373D01*
X161768894Y-48468823D01*
X161756449Y-48477865D01*
X161677865Y-48556449D01*
X161668823Y-48568894D01*
X161618371Y-48667912D01*
X161613616Y-48682547D01*
X161608320Y-48715987D01*
X161580543Y-48770503D01*
X161526026Y-48798281D01*
X161510539Y-48799500D01*
X160556900Y-48799500D01*
X160498709Y-48780593D01*
X160486896Y-48770504D01*
X160379496Y-48663104D01*
X160351719Y-48608587D01*
X160350500Y-48593100D01*
X160350500Y-48199500D01*
X160369407Y-48141309D01*
X160418907Y-48105345D01*
X160449500Y-48100500D01*
X163668837Y-48100500D01*
X163727028Y-48119407D01*
X163738840Y-48129496D01*
X163866913Y-48257570D01*
X163985550Y-48376207D01*
X163990149Y-48381130D01*
X164028311Y-48424876D01*
X164079239Y-48460668D01*
X164080532Y-48461577D01*
X164084694Y-48464668D01*
X164130238Y-48500380D01*
X164130241Y-48500382D01*
X164134937Y-48504064D01*
X164140380Y-48506522D01*
X164140381Y-48506522D01*
X164143315Y-48507847D01*
X164159508Y-48517082D01*
X164167027Y-48522367D01*
X164172586Y-48524534D01*
X164172589Y-48524536D01*
X164226507Y-48545558D01*
X164231283Y-48547566D01*
X164259560Y-48560333D01*
X164289464Y-48573835D01*
X164298193Y-48575453D01*
X164298506Y-48575511D01*
X164316418Y-48580613D01*
X164324993Y-48583956D01*
X164388299Y-48592290D01*
X164393394Y-48593096D01*
X164425567Y-48599060D01*
X164450300Y-48603644D01*
X164450303Y-48603644D01*
X164456172Y-48604732D01*
X164518405Y-48601144D01*
X164524102Y-48600980D01*
X165559751Y-48600980D01*
X165618568Y-48620346D01*
X165630232Y-48628961D01*
X165754500Y-48672601D01*
X165760504Y-48673169D01*
X165760506Y-48673169D01*
X165782856Y-48675282D01*
X165782866Y-48675282D01*
X165785167Y-48675500D01*
X165878961Y-48675500D01*
X165897000Y-48677158D01*
X165957476Y-48688366D01*
X166037320Y-48703165D01*
X166037323Y-48703165D01*
X166043192Y-48704253D01*
X166106384Y-48700609D01*
X166206501Y-48694837D01*
X166206504Y-48694836D01*
X166212460Y-48694493D01*
X166218246Y-48692713D01*
X166259973Y-48679876D01*
X166289083Y-48675499D01*
X166389832Y-48675499D01*
X166420500Y-48672601D01*
X166426184Y-48670605D01*
X166426188Y-48670604D01*
X166537786Y-48631413D01*
X166544768Y-48628961D01*
X166650711Y-48550711D01*
X166728961Y-48444768D01*
X166772601Y-48320500D01*
X166773676Y-48309133D01*
X166775282Y-48292144D01*
X166775282Y-48292134D01*
X166775500Y-48289833D01*
X166775500Y-48163765D01*
X166778588Y-48143941D01*
X166777713Y-48143774D01*
X166778831Y-48137911D01*
X166780646Y-48132225D01*
X166792178Y-47963070D01*
X166776973Y-47875950D01*
X166775499Y-47858930D01*
X166775499Y-47710168D01*
X166772601Y-47679500D01*
X166770603Y-47673809D01*
X166731413Y-47562214D01*
X166728961Y-47555232D01*
X166650711Y-47449289D01*
X166544768Y-47371039D01*
X166420500Y-47327399D01*
X166414493Y-47326831D01*
X166408600Y-47325538D01*
X166408997Y-47323729D01*
X166365722Y-47306461D01*
X166358217Y-47300576D01*
X166358214Y-47300574D01*
X166353523Y-47296896D01*
X166348086Y-47294441D01*
X166348084Y-47294440D01*
X166345145Y-47293113D01*
X166328952Y-47283878D01*
X166321433Y-47278593D01*
X166315874Y-47276426D01*
X166315871Y-47276424D01*
X166261953Y-47255402D01*
X166257177Y-47253394D01*
X166228900Y-47240627D01*
X166198996Y-47227125D01*
X166189955Y-47225449D01*
X166172042Y-47220347D01*
X166163467Y-47217004D01*
X166100161Y-47208670D01*
X166095066Y-47207864D01*
X166062893Y-47201900D01*
X166038160Y-47197316D01*
X166038157Y-47197316D01*
X166032288Y-47196228D01*
X165970056Y-47199816D01*
X165964358Y-47199980D01*
X164831645Y-47199980D01*
X164773454Y-47181073D01*
X164761641Y-47170984D01*
X164514922Y-46924265D01*
X164510323Y-46919341D01*
X164476092Y-46880101D01*
X164472169Y-46875604D01*
X164419939Y-46838897D01*
X164415786Y-46835812D01*
X164370242Y-46800100D01*
X164370239Y-46800098D01*
X164365543Y-46796416D01*
X164360099Y-46793958D01*
X164357165Y-46792633D01*
X164340972Y-46783398D01*
X164333453Y-46778113D01*
X164327894Y-46775946D01*
X164327891Y-46775944D01*
X164273973Y-46754922D01*
X164269197Y-46752914D01*
X164240920Y-46740147D01*
X164211016Y-46726645D01*
X164201975Y-46724969D01*
X164184062Y-46719867D01*
X164175487Y-46716524D01*
X164112181Y-46708190D01*
X164107086Y-46707384D01*
X164074913Y-46701420D01*
X164050180Y-46696836D01*
X164050177Y-46696836D01*
X164044308Y-46695748D01*
X163982076Y-46699336D01*
X163976378Y-46699500D01*
X160449500Y-46699500D01*
X160391309Y-46680593D01*
X160355345Y-46631093D01*
X160350500Y-46600500D01*
X160350500Y-46080252D01*
X160338867Y-46021769D01*
X160294552Y-45955448D01*
X160228231Y-45911133D01*
X160218668Y-45909231D01*
X160218666Y-45909230D01*
X160195995Y-45904721D01*
X160169748Y-45899500D01*
X158130252Y-45899500D01*
X158104005Y-45904721D01*
X158081334Y-45909230D01*
X158081332Y-45909231D01*
X158071769Y-45911133D01*
X158005448Y-45955448D01*
X157961133Y-46021769D01*
X157949500Y-46080252D01*
X157949500Y-46950500D01*
X157930593Y-47008691D01*
X157881093Y-47044655D01*
X157850500Y-47049500D01*
X151830252Y-47049500D01*
X151804005Y-47054721D01*
X151781334Y-47059230D01*
X151781332Y-47059231D01*
X151771769Y-47061133D01*
X151705448Y-47105448D01*
X151703700Y-47102832D01*
X151663566Y-47123281D01*
X151648079Y-47124500D01*
X151250517Y-47124500D01*
X151191699Y-47105133D01*
X151139464Y-47066552D01*
X151094768Y-47033539D01*
X150970500Y-46989899D01*
X150964496Y-46989331D01*
X150964494Y-46989331D01*
X150942144Y-46987218D01*
X150942134Y-46987218D01*
X150939833Y-46987000D01*
X150650125Y-46987000D01*
X150360168Y-46987001D01*
X150329500Y-46989899D01*
X150323816Y-46991895D01*
X150323812Y-46991896D01*
X150275988Y-47008691D01*
X150205232Y-47033539D01*
X150099289Y-47111789D01*
X150021039Y-47217732D01*
X149977399Y-47342000D01*
X149976831Y-47348004D01*
X149976831Y-47348006D01*
X149974886Y-47368587D01*
X149974500Y-47372667D01*
X149400500Y-47372667D01*
X149400500Y-46780252D01*
X149391953Y-46737282D01*
X149390770Y-46731334D01*
X149390769Y-46731332D01*
X149388867Y-46721769D01*
X149344552Y-46655448D01*
X149336442Y-46650029D01*
X149329550Y-46643137D01*
X149332506Y-46640181D01*
X149306655Y-46607460D01*
X149300500Y-46573097D01*
X149300500Y-46349955D01*
X149975000Y-46349955D01*
X149975218Y-46354591D01*
X149977327Y-46376897D01*
X149979895Y-46388599D01*
X150019034Y-46500051D01*
X150025881Y-46512984D01*
X150095246Y-46606897D01*
X150105603Y-46617254D01*
X150199516Y-46686619D01*
X150212449Y-46693466D01*
X150323901Y-46732605D01*
X150335603Y-46735173D01*
X150357909Y-46737282D01*
X150362545Y-46737500D01*
X150534320Y-46737500D01*
X150547005Y-46733378D01*
X150550000Y-46729257D01*
X150550000Y-46721820D01*
X150750000Y-46721820D01*
X150754122Y-46734505D01*
X150758243Y-46737500D01*
X150937455Y-46737500D01*
X150942091Y-46737282D01*
X150964397Y-46735173D01*
X150976099Y-46732605D01*
X151087551Y-46693466D01*
X151100484Y-46686619D01*
X151194397Y-46617254D01*
X151204754Y-46606897D01*
X151274119Y-46512984D01*
X151280966Y-46500051D01*
X151293331Y-46464840D01*
X151650000Y-46464840D01*
X151650948Y-46474462D01*
X151659702Y-46518474D01*
X151667021Y-46536142D01*
X151700389Y-46586082D01*
X151713918Y-46599611D01*
X151763858Y-46632979D01*
X151781526Y-46640298D01*
X151825538Y-46649052D01*
X151835160Y-46650000D01*
X152734320Y-46650000D01*
X152747005Y-46645878D01*
X152750000Y-46641757D01*
X152750000Y-46634320D01*
X152950000Y-46634320D01*
X152954122Y-46647005D01*
X152958243Y-46650000D01*
X153864840Y-46650000D01*
X153874462Y-46649052D01*
X153918474Y-46640298D01*
X153936142Y-46632979D01*
X153986082Y-46599611D01*
X153999611Y-46586082D01*
X154032979Y-46536142D01*
X154040298Y-46518474D01*
X154049052Y-46474462D01*
X154050000Y-46464840D01*
X154050000Y-45815680D01*
X154045878Y-45802995D01*
X154041757Y-45800000D01*
X152965680Y-45800000D01*
X152952995Y-45804122D01*
X152950000Y-45808243D01*
X152950000Y-46634320D01*
X152750000Y-46634320D01*
X152750000Y-45815680D01*
X152745878Y-45802995D01*
X152741757Y-45800000D01*
X151665680Y-45800000D01*
X151652995Y-45804122D01*
X151650000Y-45808243D01*
X151650000Y-46464840D01*
X151293331Y-46464840D01*
X151320105Y-46388599D01*
X151322673Y-46376897D01*
X151324782Y-46354591D01*
X151325000Y-46349955D01*
X151325000Y-46115680D01*
X151320878Y-46102995D01*
X151316757Y-46100000D01*
X150765680Y-46100000D01*
X150752995Y-46104122D01*
X150750000Y-46108243D01*
X150750000Y-46721820D01*
X150550000Y-46721820D01*
X150550000Y-46115680D01*
X150545878Y-46102995D01*
X150541757Y-46100000D01*
X149990680Y-46100000D01*
X149977995Y-46104122D01*
X149975000Y-46108243D01*
X149975000Y-46349955D01*
X149300500Y-46349955D01*
X149300500Y-45931164D01*
X149315720Y-45884320D01*
X149975000Y-45884320D01*
X149979122Y-45897005D01*
X149983243Y-45900000D01*
X150534320Y-45900000D01*
X150547005Y-45895878D01*
X150550000Y-45891757D01*
X150550000Y-45884320D01*
X150750000Y-45884320D01*
X150754122Y-45897005D01*
X150758243Y-45900000D01*
X151309320Y-45900000D01*
X151322005Y-45895878D01*
X151325000Y-45891757D01*
X151325000Y-45650045D01*
X151324782Y-45645409D01*
X151322673Y-45623103D01*
X151320105Y-45611401D01*
X151310595Y-45584320D01*
X151650000Y-45584320D01*
X151654122Y-45597005D01*
X151658243Y-45600000D01*
X152734320Y-45600000D01*
X152747005Y-45595878D01*
X152750000Y-45591757D01*
X152750000Y-45584320D01*
X152950000Y-45584320D01*
X152954122Y-45597005D01*
X152958243Y-45600000D01*
X154034320Y-45600000D01*
X154047005Y-45595878D01*
X154050000Y-45591757D01*
X154050000Y-44935160D01*
X154049052Y-44925538D01*
X154040298Y-44881526D01*
X154032979Y-44863858D01*
X153999611Y-44813918D01*
X153986082Y-44800389D01*
X153936142Y-44767021D01*
X153918474Y-44759702D01*
X153874462Y-44750948D01*
X153864840Y-44750000D01*
X152965680Y-44750000D01*
X152952995Y-44754122D01*
X152950000Y-44758243D01*
X152950000Y-45584320D01*
X152750000Y-45584320D01*
X152750000Y-44765680D01*
X152745878Y-44752995D01*
X152741757Y-44750000D01*
X151835160Y-44750000D01*
X151825538Y-44750948D01*
X151781526Y-44759702D01*
X151763858Y-44767021D01*
X151713918Y-44800389D01*
X151700389Y-44813918D01*
X151667021Y-44863858D01*
X151659702Y-44881526D01*
X151650948Y-44925538D01*
X151650000Y-44935160D01*
X151650000Y-45584320D01*
X151310595Y-45584320D01*
X151280966Y-45499949D01*
X151274119Y-45487016D01*
X151204754Y-45393103D01*
X151194397Y-45382746D01*
X151100484Y-45313381D01*
X151087551Y-45306534D01*
X150976099Y-45267395D01*
X150964397Y-45264827D01*
X150942091Y-45262718D01*
X150937455Y-45262500D01*
X150765680Y-45262500D01*
X150752995Y-45266622D01*
X150750000Y-45270743D01*
X150750000Y-45884320D01*
X150550000Y-45884320D01*
X150550000Y-45278180D01*
X150545878Y-45265495D01*
X150541757Y-45262500D01*
X150362545Y-45262500D01*
X150357909Y-45262718D01*
X150335603Y-45264827D01*
X150323901Y-45267395D01*
X150212449Y-45306534D01*
X150199516Y-45313381D01*
X150105603Y-45382746D01*
X150095246Y-45393103D01*
X150025881Y-45487016D01*
X150019034Y-45499949D01*
X149979895Y-45611401D01*
X149977327Y-45623103D01*
X149975218Y-45645409D01*
X149975000Y-45650045D01*
X149975000Y-45884320D01*
X149315720Y-45884320D01*
X149319407Y-45872973D01*
X149329496Y-45861160D01*
X151718050Y-43472607D01*
X151772567Y-43444830D01*
X151832999Y-43454401D01*
X151876264Y-43497666D01*
X151880431Y-43509686D01*
X151880499Y-43509658D01*
X151884230Y-43518665D01*
X151886133Y-43528231D01*
X151930448Y-43594552D01*
X151996769Y-43638867D01*
X152006332Y-43640769D01*
X152006334Y-43640770D01*
X152029005Y-43645279D01*
X152055252Y-43650500D01*
X153794748Y-43650500D01*
X153820995Y-43645279D01*
X153843666Y-43640770D01*
X153843668Y-43640769D01*
X153853231Y-43638867D01*
X153919552Y-43594552D01*
X153963867Y-43528231D01*
X153967562Y-43509658D01*
X153970279Y-43495995D01*
X153975500Y-43469748D01*
X153975500Y-42709846D01*
X154420483Y-42709846D01*
X154426847Y-42785644D01*
X154428585Y-42795111D01*
X154482674Y-42983743D01*
X154486225Y-42992711D01*
X154575919Y-43167236D01*
X154581142Y-43175341D01*
X154703037Y-43329134D01*
X154709720Y-43336055D01*
X154859164Y-43463241D01*
X154867078Y-43468742D01*
X155038373Y-43564475D01*
X155047201Y-43568332D01*
X155233838Y-43628974D01*
X155243238Y-43631041D01*
X155349432Y-43643704D01*
X155362514Y-43641113D01*
X155363955Y-43639557D01*
X155365000Y-43634803D01*
X155365000Y-43629775D01*
X155565000Y-43629775D01*
X155569122Y-43642460D01*
X155571735Y-43644359D01*
X155574679Y-43644710D01*
X155643385Y-43639424D01*
X155652876Y-43637750D01*
X155841882Y-43584978D01*
X155850862Y-43581496D01*
X156026020Y-43493017D01*
X156034155Y-43487854D01*
X156188787Y-43367042D01*
X156195771Y-43360391D01*
X156323990Y-43211848D01*
X156329546Y-43203973D01*
X156426471Y-43033353D01*
X156430392Y-43024546D01*
X156492334Y-42838346D01*
X156494469Y-42828944D01*
X156508794Y-42715556D01*
X156506294Y-42702455D01*
X156504884Y-42701130D01*
X156499829Y-42700000D01*
X155580680Y-42700000D01*
X155567995Y-42704122D01*
X155565000Y-42708243D01*
X155565000Y-43629775D01*
X155365000Y-43629775D01*
X155365000Y-42715680D01*
X155360878Y-42702995D01*
X155356757Y-42700000D01*
X154435336Y-42700000D01*
X154422651Y-42704122D01*
X154420860Y-42706586D01*
X154420483Y-42709846D01*
X153975500Y-42709846D01*
X153975500Y-42484417D01*
X154421334Y-42484417D01*
X154424016Y-42497484D01*
X154425719Y-42499039D01*
X154430165Y-42500000D01*
X155349320Y-42500000D01*
X155362005Y-42495878D01*
X155365000Y-42491757D01*
X155365000Y-42484320D01*
X155565000Y-42484320D01*
X155569122Y-42497005D01*
X155573243Y-42500000D01*
X156494596Y-42500000D01*
X156507281Y-42495878D01*
X156508854Y-42493713D01*
X156509278Y-42489818D01*
X156500459Y-42399885D01*
X156498589Y-42390437D01*
X156441869Y-42202572D01*
X156438199Y-42193668D01*
X156346072Y-42020401D01*
X156340740Y-42012376D01*
X156216716Y-41860307D01*
X156209922Y-41853466D01*
X156058721Y-41728381D01*
X156050738Y-41722997D01*
X155878114Y-41629660D01*
X155869243Y-41625931D01*
X155681775Y-41567900D01*
X155672341Y-41565963D01*
X155580594Y-41556320D01*
X155567548Y-41559093D01*
X155565881Y-41560945D01*
X155565000Y-41565088D01*
X155565000Y-42484320D01*
X155365000Y-42484320D01*
X155365000Y-41570396D01*
X155360878Y-41557711D01*
X155358563Y-41556028D01*
X155354987Y-41555627D01*
X155272117Y-41563168D01*
X155262654Y-41564974D01*
X155074407Y-41620378D01*
X155065466Y-41623991D01*
X154891573Y-41714899D01*
X154883497Y-41720184D01*
X154730571Y-41843140D01*
X154723687Y-41849881D01*
X154597551Y-42000205D01*
X154592104Y-42008159D01*
X154497573Y-42180111D01*
X154493773Y-42188976D01*
X154434440Y-42376019D01*
X154432435Y-42385450D01*
X154421334Y-42484417D01*
X153975500Y-42484417D01*
X153975500Y-41730252D01*
X153963867Y-41671769D01*
X153919552Y-41605448D01*
X153853231Y-41561133D01*
X153843668Y-41559231D01*
X153843666Y-41559230D01*
X153820995Y-41554721D01*
X153794748Y-41549500D01*
X152055252Y-41549500D01*
X152029005Y-41554721D01*
X152006334Y-41559230D01*
X152006332Y-41559231D01*
X151996769Y-41561133D01*
X151930448Y-41605448D01*
X151886133Y-41671769D01*
X151874500Y-41730252D01*
X151874500Y-41800500D01*
X151855593Y-41858691D01*
X151806093Y-41894655D01*
X151775500Y-41899500D01*
X151627729Y-41899500D01*
X151620995Y-41899271D01*
X151620683Y-41899250D01*
X151563070Y-41895322D01*
X151519960Y-41902846D01*
X151500182Y-41906297D01*
X151495057Y-41907054D01*
X151437602Y-41914007D01*
X151437599Y-41914008D01*
X151431680Y-41914724D01*
X151423079Y-41917974D01*
X151405105Y-41922891D01*
X151401929Y-41923445D01*
X151401926Y-41923446D01*
X151396047Y-41924472D01*
X151390579Y-41926872D01*
X151390580Y-41926872D01*
X151337590Y-41950132D01*
X151332794Y-41952090D01*
X151273077Y-41974655D01*
X151268160Y-41978034D01*
X151268157Y-41978036D01*
X151265501Y-41979862D01*
X151249219Y-41988925D01*
X151240798Y-41992621D01*
X151236066Y-41996252D01*
X151236061Y-41996255D01*
X151190146Y-42031487D01*
X151185954Y-42034533D01*
X151133349Y-42070688D01*
X151129382Y-42075141D01*
X151129378Y-42075144D01*
X151091885Y-42117226D01*
X151087972Y-42121372D01*
X148124265Y-45085078D01*
X148119341Y-45089677D01*
X148075604Y-45127831D01*
X148072173Y-45132713D01*
X148072172Y-45132714D01*
X148038903Y-45180052D01*
X148035818Y-45184205D01*
X147996416Y-45234457D01*
X147993958Y-45239900D01*
X147993958Y-45239901D01*
X147992633Y-45242835D01*
X147983398Y-45259028D01*
X147978113Y-45266547D01*
X147975946Y-45272106D01*
X147975944Y-45272109D01*
X147954922Y-45326027D01*
X147952914Y-45330803D01*
X147926645Y-45388984D01*
X147925558Y-45394851D01*
X147924969Y-45398026D01*
X147919867Y-45415938D01*
X147916524Y-45424513D01*
X147915745Y-45430432D01*
X147908192Y-45487808D01*
X147907384Y-45492914D01*
X147895748Y-45555692D01*
X147896092Y-45561654D01*
X147899336Y-45617924D01*
X147899500Y-45623622D01*
X147899500Y-46573097D01*
X147880593Y-46631288D01*
X147869375Y-46642062D01*
X147870450Y-46643137D01*
X147863558Y-46650029D01*
X147855448Y-46655448D01*
X147811133Y-46721769D01*
X147809231Y-46731332D01*
X147809230Y-46731334D01*
X147808047Y-46737282D01*
X147799500Y-46780252D01*
X147799500Y-48019748D01*
X146000000Y-48019748D01*
X146000000Y-41400000D01*
X147044341Y-41400000D01*
X147064937Y-41635408D01*
X147126097Y-41863663D01*
X147225965Y-42077829D01*
X147361505Y-42271401D01*
X147528599Y-42438495D01*
X147722171Y-42574035D01*
X147936337Y-42673903D01*
X148164592Y-42735063D01*
X148249431Y-42742486D01*
X148338870Y-42750311D01*
X148338878Y-42750311D01*
X148341034Y-42750500D01*
X148458966Y-42750500D01*
X148461122Y-42750311D01*
X148461130Y-42750311D01*
X148550569Y-42742486D01*
X148635408Y-42735063D01*
X148863663Y-42673903D01*
X149077829Y-42574035D01*
X149271401Y-42438495D01*
X149438495Y-42271401D01*
X149571554Y-42081374D01*
X149571554Y-42081373D01*
X149574035Y-42077830D01*
X149673903Y-41863663D01*
X149735063Y-41635408D01*
X149755659Y-41400000D01*
X170044341Y-41400000D01*
X170064937Y-41635408D01*
X170126097Y-41863663D01*
X170225965Y-42077829D01*
X170361505Y-42271401D01*
X170528599Y-42438495D01*
X170722171Y-42574035D01*
X170936337Y-42673903D01*
X171164592Y-42735063D01*
X171249431Y-42742486D01*
X171338870Y-42750311D01*
X171338878Y-42750311D01*
X171341034Y-42750500D01*
X171458966Y-42750500D01*
X171461122Y-42750311D01*
X171461130Y-42750311D01*
X171550569Y-42742486D01*
X171635408Y-42735063D01*
X171863663Y-42673903D01*
X172077829Y-42574035D01*
X172271401Y-42438495D01*
X172438495Y-42271401D01*
X172571554Y-42081374D01*
X172571554Y-42081373D01*
X172574035Y-42077830D01*
X172673903Y-41863663D01*
X172735063Y-41635408D01*
X172755659Y-41400000D01*
X172735063Y-41164592D01*
X172673903Y-40936337D01*
X172574035Y-40722171D01*
X172438495Y-40528599D01*
X172271401Y-40361505D01*
X172077829Y-40225965D01*
X171863663Y-40126097D01*
X171635408Y-40064937D01*
X171550569Y-40057514D01*
X171461130Y-40049689D01*
X171461122Y-40049689D01*
X171458966Y-40049500D01*
X171341034Y-40049500D01*
X171338878Y-40049689D01*
X171338870Y-40049689D01*
X171249431Y-40057514D01*
X171164592Y-40064937D01*
X170936337Y-40126097D01*
X170722171Y-40225965D01*
X170528599Y-40361505D01*
X170361505Y-40528599D01*
X170359026Y-40532140D01*
X170228447Y-40718625D01*
X170228446Y-40718627D01*
X170225965Y-40722170D01*
X170126097Y-40936337D01*
X170064937Y-41164592D01*
X170044341Y-41400000D01*
X149755659Y-41400000D01*
X149735063Y-41164592D01*
X149673903Y-40936337D01*
X149574035Y-40722171D01*
X149438495Y-40528599D01*
X149271401Y-40361505D01*
X149077829Y-40225965D01*
X148863663Y-40126097D01*
X148635408Y-40064937D01*
X148550569Y-40057514D01*
X148461130Y-40049689D01*
X148461122Y-40049689D01*
X148458966Y-40049500D01*
X148341034Y-40049500D01*
X148338878Y-40049689D01*
X148338870Y-40049689D01*
X148249431Y-40057514D01*
X148164592Y-40064937D01*
X147936337Y-40126097D01*
X147722171Y-40225965D01*
X147528599Y-40361505D01*
X147361505Y-40528599D01*
X147359026Y-40532140D01*
X147228447Y-40718625D01*
X147228446Y-40718627D01*
X147225965Y-40722170D01*
X147126097Y-40936337D01*
X147064937Y-41164592D01*
X147044341Y-41400000D01*
X146000000Y-41400000D01*
X146000000Y-39099000D01*
X146018907Y-39040809D01*
X146068407Y-39004845D01*
X146099000Y-39000000D01*
X173701000Y-39000000D01*
X173759191Y-39018907D01*
G37*
%TD.AperFunction*%
%TA.AperFunction,Conductor*%
G36*
X162920338Y-49745309D02*
G01*
X162935160Y-49760131D01*
X162937860Y-49763260D01*
X162940055Y-49767749D01*
X162946758Y-49773967D01*
X162976302Y-49801373D01*
X162978978Y-49803949D01*
X162992757Y-49817728D01*
X162996467Y-49820273D01*
X163000379Y-49823709D01*
X163013724Y-49836088D01*
X163043528Y-49889524D01*
X163036231Y-49950272D01*
X162994621Y-49995130D01*
X162934590Y-50006962D01*
X162920355Y-50004182D01*
X162912819Y-50002127D01*
X162897420Y-50000332D01*
X162891708Y-50000000D01*
X162802766Y-50000000D01*
X162744575Y-49981093D01*
X162708611Y-49931593D01*
X162708611Y-49870407D01*
X162722673Y-49842809D01*
X162731179Y-49831102D01*
X162762124Y-49770368D01*
X162805389Y-49727103D01*
X162865821Y-49717532D01*
X162920338Y-49745309D01*
G37*
%TD.AperFunction*%
%TD*%
M02*
