%TF.GenerationSoftware,KiCad,Pcbnew,(6.0.2)*%
%TF.CreationDate,2022-05-16T05:59:01+03:00*%
%TF.ProjectId,FLIM_laser,464c494d-5f6c-4617-9365-722e6b696361,rev?*%
%TF.SameCoordinates,Original*%
%TF.FileFunction,Soldermask,Top*%
%TF.FilePolarity,Negative*%
%FSLAX46Y46*%
G04 Gerber Fmt 4.6, Leading zero omitted, Abs format (unit mm)*
G04 Created by KiCad (PCBNEW (6.0.2)) date 2022-05-16 05:59:01*
%MOMM*%
%LPD*%
G01*
G04 APERTURE LIST*
G04 Aperture macros list*
%AMRoundRect*
0 Rectangle with rounded corners*
0 $1 Rounding radius*
0 $2 $3 $4 $5 $6 $7 $8 $9 X,Y pos of 4 corners*
0 Add a 4 corners polygon primitive as box body*
4,1,4,$2,$3,$4,$5,$6,$7,$8,$9,$2,$3,0*
0 Add four circle primitives for the rounded corners*
1,1,$1+$1,$2,$3*
1,1,$1+$1,$4,$5*
1,1,$1+$1,$6,$7*
1,1,$1+$1,$8,$9*
0 Add four rect primitives between the rounded corners*
20,1,$1+$1,$2,$3,$4,$5,0*
20,1,$1+$1,$4,$5,$6,$7,0*
20,1,$1+$1,$6,$7,$8,$9,0*
20,1,$1+$1,$8,$9,$2,$3,0*%
G04 Aperture macros list end*
%ADD10R,1.700000X1.700000*%
%ADD11O,1.700000X1.700000*%
%ADD12C,2.200000*%
%ADD13RoundRect,0.237500X0.300000X0.237500X-0.300000X0.237500X-0.300000X-0.237500X0.300000X-0.237500X0*%
%ADD14R,2.000000X1.500000*%
%ADD15R,2.000000X3.800000*%
%ADD16RoundRect,0.100000X0.100000X-0.100000X0.100000X0.100000X-0.100000X0.100000X-0.100000X-0.100000X0*%
%ADD17RoundRect,0.200000X0.200000X-0.400000X0.200000X0.400000X-0.200000X0.400000X-0.200000X-0.400000X0*%
%ADD18RoundRect,0.237500X0.237500X-0.300000X0.237500X0.300000X-0.237500X0.300000X-0.237500X-0.300000X0*%
%ADD19RoundRect,0.237500X-0.237500X0.300000X-0.237500X-0.300000X0.237500X-0.300000X0.237500X0.300000X0*%
%ADD20R,0.400000X1.500000*%
%ADD21RoundRect,0.100000X-0.130000X-0.100000X0.130000X-0.100000X0.130000X0.100000X-0.130000X0.100000X0*%
%ADD22RoundRect,0.237500X0.250000X0.237500X-0.250000X0.237500X-0.250000X-0.237500X0.250000X-0.237500X0*%
%ADD23RoundRect,0.057500X-0.192500X-0.057500X0.192500X-0.057500X0.192500X0.057500X-0.192500X0.057500X0*%
%ADD24RoundRect,0.053750X-0.196250X-0.053750X0.196250X-0.053750X0.196250X0.053750X-0.196250X0.053750X0*%
%ADD25R,1.200000X1.200000*%
%ADD26RoundRect,0.237500X-0.250000X-0.237500X0.250000X-0.237500X0.250000X0.237500X-0.250000X0.237500X0*%
%ADD27RoundRect,0.045000X-0.045000X0.305000X-0.045000X-0.305000X0.045000X-0.305000X0.045000X0.305000X0*%
%ADD28RoundRect,0.045000X-0.045000X0.705000X-0.045000X-0.705000X0.045000X-0.705000X0.045000X0.705000X0*%
G04 APERTURE END LIST*
D10*
%TO.C,J4*%
X162600000Y-59200000D03*
D11*
X165140000Y-59200000D03*
%TD*%
D12*
%TO.C,REF\u002A\u002A*%
X148400000Y-41400000D03*
%TD*%
D13*
%TO.C,C6*%
X163200000Y-56600000D03*
X161475000Y-56600000D03*
%TD*%
D14*
%TO.C,U1*%
X152850000Y-45700000D03*
D15*
X159150000Y-48000000D03*
D14*
X152850000Y-48000000D03*
X152850000Y-50300000D03*
%TD*%
D16*
%TO.C,C4*%
X161400000Y-49200000D03*
D17*
X162200000Y-49200000D03*
D16*
X163000000Y-49200000D03*
%TD*%
D18*
%TO.C,C2*%
X150650000Y-47725000D03*
X150650000Y-46000000D03*
%TD*%
D10*
%TO.C,J1*%
X168200000Y-45400000D03*
D11*
X170740000Y-45400000D03*
%TD*%
D10*
%TO.C,J2*%
X152925000Y-42600000D03*
D11*
X155465000Y-42600000D03*
%TD*%
D19*
%TO.C,C7*%
X160800000Y-52537500D03*
X160800000Y-54262500D03*
%TD*%
D10*
%TO.C,J3*%
X172200000Y-50000000D03*
D11*
X172200000Y-52540000D03*
%TD*%
D20*
%TO.C,U3*%
X162350000Y-54730000D03*
X163000000Y-54730000D03*
X163650000Y-54730000D03*
X163650000Y-52070000D03*
X162350000Y-52070000D03*
%TD*%
D21*
%TO.C,C5*%
X162080000Y-50400000D03*
X162720000Y-50400000D03*
%TD*%
D22*
%TO.C,R4*%
X166425000Y-56600000D03*
X164600000Y-56600000D03*
%TD*%
D19*
%TO.C,C1*%
X150450000Y-50337500D03*
X150450000Y-52062500D03*
%TD*%
D12*
%TO.C,REF\u002A\u002A*%
X171400000Y-41400000D03*
%TD*%
D23*
%TO.C,U2*%
X163600000Y-49592500D03*
D24*
X164400000Y-49592500D03*
D23*
X163600000Y-50000000D03*
X164400000Y-50000000D03*
X163600000Y-50400000D03*
X164400000Y-50400000D03*
%TD*%
D25*
%TO.C,D1*%
X148600000Y-50200000D03*
X148600000Y-47400000D03*
%TD*%
D12*
%TO.C,REF\u002A\u002A*%
X148600000Y-60800000D03*
%TD*%
D21*
%TO.C,R2*%
X165225000Y-49400000D03*
X165865000Y-49400000D03*
%TD*%
D26*
%TO.C,R1*%
X166087500Y-48000000D03*
X167912500Y-48000000D03*
%TD*%
D19*
%TO.C,C3*%
X169600000Y-50137500D03*
X169600000Y-51862500D03*
%TD*%
D12*
%TO.C,REF\u002A\u002A*%
X171200000Y-60800000D03*
%TD*%
D21*
%TO.C,R3*%
X165225000Y-50200000D03*
X165865000Y-50200000D03*
%TD*%
D27*
%TO.C,M1*%
X166780000Y-49750000D03*
X166780000Y-50650000D03*
D28*
X167200000Y-50200000D03*
X167600000Y-50200000D03*
X168000000Y-50200000D03*
%TD*%
M02*
