M48
; DRILL file {KiCad (6.0.2)} date Mon May 16 06:01:49 2022
; FORMAT={-:-/ absolute / metric / decimal}
; #@! TF.CreationDate,2022-05-16T06:01:49+03:00
; #@! TF.GenerationSoftware,Kicad,Pcbnew,(6.0.2)
; #@! TF.FileFunction,Plated,1,2,PTH
FMAT,2
METRIC
; #@! TA.AperFunction,Plated,PTH,ViaDrill
T1C0.400
; #@! TA.AperFunction,Plated,PTH,ComponentDrill
T2C1.000
%
G90
G05
T1
X148.6Y-53.8
X151.4Y-56.4
X152.2Y-40.4
X153.6Y-60.0
X153.8Y-54.0
X154.8Y-40.0
X155.8Y-50.2
X155.8Y-56.8
X156.0Y-45.4
X156.4Y-62.2
X156.6Y-40.2
X158.4Y-42.2
X158.6Y-54.0
X158.6Y-60.0
X161.0Y-40.2
X161.0Y-45.2
X163.4Y-42.2
X164.0Y-62.4
X165.2Y-45.0
X165.4Y-40.4
X166.0Y-51.2
X167.2Y-51.8
X167.2Y-54.2
X167.8Y-42.4
X169.2Y-54.8
X170.6Y-47.8
X172.0Y-56.6
X172.2Y-48.2
T2
X152.925Y-42.6
X155.465Y-42.6
X162.6Y-59.2
X165.14Y-59.2
X168.2Y-45.4
X170.74Y-45.4
X172.2Y-50.0
X172.2Y-52.54
T0
M30
